<?xml version="1.0" encoding="utf-8" standalone="no"?>
<!DOCTYPE svg PUBLIC "-//W3C//DTD SVG 1.1//EN"
  "http://www.w3.org/Graphics/SVG/1.1/DTD/svg11.dtd">
<!-- Created with matplotlib (https://matplotlib.org/) -->
<svg height="504pt" version="1.1" viewBox="0 0 720 504" width="720pt" xmlns="http://www.w3.org/2000/svg" xmlns:xlink="http://www.w3.org/1999/xlink">
 <metadata>
  <rdf:RDF xmlns:cc="http://creativecommons.org/ns#" xmlns:dc="http://purl.org/dc/elements/1.1/" xmlns:rdf="http://www.w3.org/1999/02/22-rdf-syntax-ns#">
   <cc:Work>
    <dc:type rdf:resource="http://purl.org/dc/dcmitype/StillImage"/>
    <dc:date>2021-01-09T02:09:48.911422</dc:date>
    <dc:format>image/svg+xml</dc:format>
    <dc:creator>
     <cc:Agent>
      <dc:title>Matplotlib v3.3.2, https://matplotlib.org/</dc:title>
     </cc:Agent>
    </dc:creator>
   </cc:Work>
  </rdf:RDF>
 </metadata>
 <defs>
  <style type="text/css">*{stroke-linecap:butt;stroke-linejoin:round;}</style>
 </defs>
 <g id="figure_1">
  <g id="patch_1">
   <path d="M 0 504 
L 720 504 
L 720 0 
L 0 0 
z
" style="fill:#ffffff;"/>
  </g>
  <g id="axes_1">
   <g id="patch_2">
    <path d="M 90 236.88 
L 648 236.88 
L 648 60.48 
L 90 60.48 
z
" style="fill:#ffffff;"/>
   </g>
   <g id="matplotlib.axis_1">
    <g id="xtick_1">
     <g id="line2d_1">
      <path clip-path="url(#pf361283da6)" d="M 114.658111 236.88 
L 114.658111 60.48 
" style="fill:none;stroke:#b0b0b0;stroke-linecap:square;stroke-width:0.8;"/>
     </g>
     <g id="line2d_2">
      <defs>
       <path d="M 0 0 
L 0 3.5 
" id="m4d712391df" style="stroke:#000000;stroke-width:0.8;"/>
      </defs>
      <g>
       <use style="stroke:#000000;stroke-width:0.8;" x="114.658111" xlink:href="#m4d712391df" y="236.88"/>
      </g>
     </g>
    </g>
    <g id="xtick_2">
     <g id="line2d_3">
      <path clip-path="url(#pf361283da6)" d="M 199.321153 236.88 
L 199.321153 60.48 
" style="fill:none;stroke:#b0b0b0;stroke-linecap:square;stroke-width:0.8;"/>
     </g>
     <g id="line2d_4">
      <g>
       <use style="stroke:#000000;stroke-width:0.8;" x="199.321153" xlink:href="#m4d712391df" y="236.88"/>
      </g>
     </g>
    </g>
    <g id="xtick_3">
     <g id="line2d_5">
      <path clip-path="url(#pf361283da6)" d="M 283.984195 236.88 
L 283.984195 60.48 
" style="fill:none;stroke:#b0b0b0;stroke-linecap:square;stroke-width:0.8;"/>
     </g>
     <g id="line2d_6">
      <g>
       <use style="stroke:#000000;stroke-width:0.8;" x="283.984195" xlink:href="#m4d712391df" y="236.88"/>
      </g>
     </g>
    </g>
    <g id="xtick_4">
     <g id="line2d_7">
      <path clip-path="url(#pf361283da6)" d="M 368.647237 236.88 
L 368.647237 60.48 
" style="fill:none;stroke:#b0b0b0;stroke-linecap:square;stroke-width:0.8;"/>
     </g>
     <g id="line2d_8">
      <g>
       <use style="stroke:#000000;stroke-width:0.8;" x="368.647237" xlink:href="#m4d712391df" y="236.88"/>
      </g>
     </g>
    </g>
    <g id="xtick_5">
     <g id="line2d_9">
      <path clip-path="url(#pf361283da6)" d="M 453.310279 236.88 
L 453.310279 60.48 
" style="fill:none;stroke:#b0b0b0;stroke-linecap:square;stroke-width:0.8;"/>
     </g>
     <g id="line2d_10">
      <g>
       <use style="stroke:#000000;stroke-width:0.8;" x="453.310279" xlink:href="#m4d712391df" y="236.88"/>
      </g>
     </g>
    </g>
    <g id="xtick_6">
     <g id="line2d_11">
      <path clip-path="url(#pf361283da6)" d="M 537.973322 236.88 
L 537.973322 60.48 
" style="fill:none;stroke:#b0b0b0;stroke-linecap:square;stroke-width:0.8;"/>
     </g>
     <g id="line2d_12">
      <g>
       <use style="stroke:#000000;stroke-width:0.8;" x="537.973322" xlink:href="#m4d712391df" y="236.88"/>
      </g>
     </g>
    </g>
    <g id="xtick_7">
     <g id="line2d_13">
      <path clip-path="url(#pf361283da6)" d="M 622.636364 236.88 
L 622.636364 60.48 
" style="fill:none;stroke:#b0b0b0;stroke-linecap:square;stroke-width:0.8;"/>
     </g>
     <g id="line2d_14">
      <g>
       <use style="stroke:#000000;stroke-width:0.8;" x="622.636364" xlink:href="#m4d712391df" y="236.88"/>
      </g>
     </g>
    </g>
   </g>
   <g id="matplotlib.axis_2">
    <g id="ytick_1">
     <g id="line2d_15">
      <path clip-path="url(#pf361283da6)" d="M 90 228.861818 
L 648 228.861818 
" style="fill:none;stroke:#b0b0b0;stroke-linecap:square;stroke-width:0.8;"/>
     </g>
     <g id="line2d_16">
      <defs>
       <path d="M 0 0 
L -3.5 0 
" id="m8164b16615" style="stroke:#000000;stroke-width:0.8;"/>
      </defs>
      <g>
       <use style="stroke:#000000;stroke-width:0.8;" x="90" xlink:href="#m8164b16615" y="228.861818"/>
      </g>
     </g>
     <g id="text_1">
      <!-- 0 -->
      <g transform="translate(76.6375 232.661037)scale(0.1 -0.1)">
       <defs>
        <path d="M 31.78125 3.421875 
Q 39.265625 3.421875 42.96875 11.625 
Q 46.6875 19.828125 46.6875 36.375 
Q 46.6875 52.984375 42.96875 61.1875 
Q 39.265625 69.390625 31.78125 69.390625 
Q 24.3125 69.390625 20.59375 61.1875 
Q 16.890625 52.984375 16.890625 36.375 
Q 16.890625 19.828125 20.59375 11.625 
Q 24.3125 3.421875 31.78125 3.421875 
z
M 31.78125 -1.421875 
Q 19.921875 -1.421875 13.25 8.53125 
Q 6.59375 18.5 6.59375 36.375 
Q 6.59375 54.296875 13.25 64.25 
Q 19.921875 74.21875 31.78125 74.21875 
Q 43.703125 74.21875 50.34375 64.25 
Q 56.984375 54.296875 56.984375 36.375 
Q 56.984375 18.5 50.34375 8.53125 
Q 43.703125 -1.421875 31.78125 -1.421875 
z
" id="DejaVuSerif-48"/>
       </defs>
       <use xlink:href="#DejaVuSerif-48"/>
      </g>
     </g>
    </g>
    <g id="ytick_2">
     <g id="line2d_17">
      <path clip-path="url(#pf361283da6)" d="M 90 191.614667 
L 648 191.614667 
" style="fill:none;stroke:#b0b0b0;stroke-linecap:square;stroke-width:0.8;"/>
     </g>
     <g id="line2d_18">
      <g>
       <use style="stroke:#000000;stroke-width:0.8;" x="90" xlink:href="#m8164b16615" y="191.614667"/>
      </g>
     </g>
     <g id="text_2">
      <!-- 50 -->
      <g transform="translate(70.275 195.413886)scale(0.1 -0.1)">
       <defs>
        <path d="M 50.296875 72.90625 
L 50.296875 64.890625 
L 16.890625 64.890625 
L 16.890625 44 
Q 19.4375 45.75 22.828125 46.625 
Q 26.21875 47.515625 30.421875 47.515625 
Q 42.234375 47.515625 49.0625 40.96875 
Q 55.90625 34.421875 55.90625 23.09375 
Q 55.90625 11.53125 49 5.046875 
Q 42.09375 -1.421875 29.59375 -1.421875 
Q 24.5625 -1.421875 19.28125 -0.1875 
Q 14.015625 1.03125 8.5 3.515625 
L 8.5 17.671875 
L 14.015625 17.671875 
Q 14.453125 10.75 18.421875 7.078125 
Q 22.40625 3.421875 29.59375 3.421875 
Q 37.3125 3.421875 41.453125 8.5 
Q 45.609375 13.578125 45.609375 23.09375 
Q 45.609375 32.5625 41.484375 37.609375 
Q 37.359375 42.671875 29.59375 42.671875 
Q 25.203125 42.671875 21.84375 41.109375 
Q 18.5 39.546875 15.921875 36.28125 
L 11.71875 36.28125 
L 11.71875 72.90625 
z
" id="DejaVuSerif-53"/>
       </defs>
       <use xlink:href="#DejaVuSerif-53"/>
       <use x="63.623047" xlink:href="#DejaVuSerif-48"/>
      </g>
     </g>
    </g>
    <g id="ytick_3">
     <g id="line2d_19">
      <path clip-path="url(#pf361283da6)" d="M 90 154.367515 
L 648 154.367515 
" style="fill:none;stroke:#b0b0b0;stroke-linecap:square;stroke-width:0.8;"/>
     </g>
     <g id="line2d_20">
      <g>
       <use style="stroke:#000000;stroke-width:0.8;" x="90" xlink:href="#m8164b16615" y="154.367515"/>
      </g>
     </g>
     <g id="text_3">
      <!-- 100 -->
      <g transform="translate(63.9125 158.166734)scale(0.1 -0.1)">
       <defs>
        <path d="M 14.203125 0 
L 14.203125 5.171875 
L 26.90625 5.171875 
L 26.90625 65.828125 
L 12.203125 56.296875 
L 12.203125 62.703125 
L 29.984375 74.21875 
L 36.71875 74.21875 
L 36.71875 5.171875 
L 49.421875 5.171875 
L 49.421875 0 
z
" id="DejaVuSerif-49"/>
       </defs>
       <use xlink:href="#DejaVuSerif-49"/>
       <use x="63.623047" xlink:href="#DejaVuSerif-48"/>
       <use x="127.246094" xlink:href="#DejaVuSerif-48"/>
      </g>
     </g>
    </g>
    <g id="ytick_4">
     <g id="line2d_21">
      <path clip-path="url(#pf361283da6)" d="M 90 117.120364 
L 648 117.120364 
" style="fill:none;stroke:#b0b0b0;stroke-linecap:square;stroke-width:0.8;"/>
     </g>
     <g id="line2d_22">
      <g>
       <use style="stroke:#000000;stroke-width:0.8;" x="90" xlink:href="#m8164b16615" y="117.120364"/>
      </g>
     </g>
     <g id="text_4">
      <!-- 150 -->
      <g transform="translate(63.9125 120.919583)scale(0.1 -0.1)">
       <use xlink:href="#DejaVuSerif-49"/>
       <use x="63.623047" xlink:href="#DejaVuSerif-53"/>
       <use x="127.246094" xlink:href="#DejaVuSerif-48"/>
      </g>
     </g>
    </g>
    <g id="ytick_5">
     <g id="line2d_23">
      <path clip-path="url(#pf361283da6)" d="M 90 79.873213 
L 648 79.873213 
" style="fill:none;stroke:#b0b0b0;stroke-linecap:square;stroke-width:0.8;"/>
     </g>
     <g id="line2d_24">
      <g>
       <use style="stroke:#000000;stroke-width:0.8;" x="90" xlink:href="#m8164b16615" y="79.873213"/>
      </g>
     </g>
     <g id="text_5">
      <!-- 200 -->
      <g transform="translate(63.9125 83.672431)scale(0.1 -0.1)">
       <defs>
        <path d="M 12.796875 55.515625 
L 7.328125 55.515625 
L 7.328125 68.5 
Q 12.546875 71.296875 17.84375 72.75 
Q 23.140625 74.21875 28.21875 74.21875 
Q 39.59375 74.21875 46.1875 68.703125 
Q 52.78125 63.1875 52.78125 53.71875 
Q 52.78125 43.015625 37.84375 28.125 
Q 36.671875 27 36.078125 26.421875 
L 17.671875 8.015625 
L 48.09375 8.015625 
L 48.09375 17 
L 53.8125 17 
L 53.8125 0 
L 6.78125 0 
L 6.78125 5.328125 
L 28.90625 27.390625 
Q 36.234375 34.71875 39.359375 40.84375 
Q 42.484375 46.96875 42.484375 53.71875 
Q 42.484375 61.078125 38.640625 65.234375 
Q 34.8125 69.390625 28.078125 69.390625 
Q 21.09375 69.390625 17.28125 65.921875 
Q 13.484375 62.453125 12.796875 55.515625 
z
" id="DejaVuSerif-50"/>
       </defs>
       <use xlink:href="#DejaVuSerif-50"/>
       <use x="63.623047" xlink:href="#DejaVuSerif-48"/>
       <use x="127.246094" xlink:href="#DejaVuSerif-48"/>
      </g>
     </g>
    </g>
    <g id="text_6">
     <!--  Mean coupling $\bf{ \widetilde{\eta}_{\,l,m}}$  [u.a.] -->
     <g transform="translate(57.1125 223.93)rotate(-90)scale(0.1 -0.1)">
      <defs>
       <path id="DejaVuSerif-Bold-32"/>
       <path d="M 4.203125 0 
L 4.203125 5.90625 
L 13.484375 5.90625 
L 13.484375 67 
L 4.203125 67 
L 4.203125 72.90625 
L 34.28125 72.90625 
L 55.078125 26.125 
L 75.984375 72.90625 
L 106 72.90625 
L 106 67 
L 96.6875 67 
L 96.6875 5.90625 
L 106 5.90625 
L 106 0 
L 68.5 0 
L 68.5 5.90625 
L 77.78125 5.90625 
L 77.78125 61.53125 
L 55.171875 10.6875 
L 42.828125 10.6875 
L 20.3125 61.53125 
L 20.3125 5.90625 
L 29.59375 5.90625 
L 29.59375 0 
z
" id="DejaVuSerif-Bold-77"/>
       <path d="M 40.09375 29.296875 
Q 40.09375 39.546875 38.1875 43.671875 
Q 36.28125 47.796875 31.6875 47.796875 
Q 27.25 47.796875 25.3125 43.75 
Q 23.390625 39.703125 23.390625 30.171875 
L 23.390625 29.296875 
z
M 59.078125 23.484375 
L 23.390625 23.484375 
L 23.390625 23.09375 
Q 23.390625 13.03125 26.40625 8.5625 
Q 29.4375 4.109375 36.1875 4.109375 
Q 41.796875 4.109375 45.265625 7.078125 
Q 48.734375 10.0625 49.703125 15.71875 
L 57.8125 15.71875 
Q 55.71875 6.890625 49.46875 2.734375 
Q 43.21875 -1.421875 31.984375 -1.421875 
Q 18.5 -1.421875 11.296875 5.6875 
Q 4.109375 12.796875 4.109375 25.984375 
Q 4.109375 38.875 11.46875 46.09375 
Q 18.84375 53.328125 31.984375 53.328125 
Q 44.875 53.328125 51.75 45.734375 
Q 58.640625 38.140625 59.078125 23.484375 
z
" id="DejaVuSerif-Bold-101"/>
       <path d="M 55.078125 31.890625 
L 55.078125 5.90625 
L 62.5 5.90625 
L 62.5 0 
L 37.796875 0 
L 37.796875 6.59375 
Q 34.375 2.484375 30.171875 0.53125 
Q 25.984375 -1.421875 20.609375 -1.421875 
Q 12.640625 -1.421875 8.375 2.84375 
Q 4.109375 7.125 4.109375 15.09375 
Q 4.109375 23.828125 10.234375 28.171875 
Q 16.359375 32.515625 28.71875 32.515625 
L 37.796875 32.515625 
L 37.796875 35.59375 
Q 37.796875 41.890625 34.8125 44.890625 
Q 31.84375 47.90625 25.59375 47.90625 
Q 20.40625 47.90625 17.59375 45.78125 
Q 14.796875 43.65625 13.625 38.8125 
L 8.109375 38.8125 
L 8.109375 50 
Q 12.75 51.65625 17.71875 52.484375 
Q 22.703125 53.328125 28.21875 53.328125 
Q 42.140625 53.328125 48.609375 48.140625 
Q 55.078125 42.96875 55.078125 31.890625 
z
M 37.796875 16.3125 
L 37.796875 26.703125 
L 31.296875 26.703125 
Q 26.46875 26.703125 23.875 24.0625 
Q 21.296875 21.4375 21.296875 16.5 
Q 21.296875 11.578125 23.171875 9.125 
Q 25.046875 6.6875 28.90625 6.6875 
Q 32.90625 6.6875 35.34375 9.328125 
Q 37.796875 11.96875 37.796875 16.3125 
z
" id="DejaVuSerif-Bold-97"/>
       <path d="M 3.421875 0 
L 3.421875 5.90625 
L 10.796875 5.90625 
L 10.796875 46 
L 3.421875 46 
L 3.421875 51.90625 
L 28.078125 51.90625 
L 28.078125 44.578125 
Q 31.203125 49.21875 35.203125 51.265625 
Q 39.203125 53.328125 45.3125 53.328125 
Q 54.046875 53.328125 58.515625 48.171875 
Q 62.984375 43.015625 62.984375 33.015625 
L 62.984375 5.90625 
L 70.40625 5.90625 
L 70.40625 0 
L 39.40625 0 
L 39.40625 5.90625 
L 45.703125 5.90625 
L 45.703125 33.5 
Q 45.703125 40.09375 44.015625 42.65625 
Q 42.328125 45.21875 38.1875 45.21875 
Q 32.953125 45.21875 30.515625 41.375 
Q 28.078125 37.546875 28.078125 29.203125 
L 28.078125 5.90625 
L 34.421875 5.90625 
L 34.421875 0 
z
" id="DejaVuSerif-Bold-110"/>
       <path d="M 56.390625 16.21875 
Q 54.546875 7.328125 48.796875 2.953125 
Q 43.0625 -1.421875 33.203125 -1.421875 
Q 19.34375 -1.421875 11.71875 5.75 
Q 4.109375 12.9375 4.109375 25.984375 
Q 4.109375 38.875 11.625 46.09375 
Q 19.140625 53.328125 32.515625 53.328125 
Q 37.9375 53.328125 43.453125 52.296875 
Q 48.96875 51.265625 54.6875 49.21875 
L 54.6875 34.8125 
L 49.21875 34.8125 
Q 48.4375 41.40625 45.359375 44.59375 
Q 42.28125 47.796875 36.71875 47.796875 
Q 29.5 47.796875 26.4375 42.90625 
Q 23.390625 38.03125 23.390625 25.984375 
Q 23.390625 14.203125 26.359375 9.15625 
Q 29.34375 4.109375 36.078125 4.109375 
Q 41.3125 4.109375 44.453125 7.234375 
Q 47.609375 10.359375 48.296875 16.21875 
z
" id="DejaVuSerif-Bold-99"/>
       <path d="M 33.40625 4.109375 
Q 38.875 4.109375 41.09375 8.796875 
Q 43.3125 13.484375 43.3125 25.984375 
Q 43.3125 38.484375 41.109375 43.140625 
Q 38.921875 47.796875 33.40625 47.796875 
Q 27.875 47.796875 25.625 43.078125 
Q 23.390625 38.375 23.390625 25.984375 
Q 23.390625 13.578125 25.625 8.84375 
Q 27.875 4.109375 33.40625 4.109375 
z
M 33.40625 -1.421875 
Q 19.671875 -1.421875 11.890625 5.875 
Q 4.109375 13.1875 4.109375 25.984375 
Q 4.109375 38.8125 11.890625 46.0625 
Q 19.671875 53.328125 33.40625 53.328125 
Q 47.171875 53.328125 54.9375 46.0625 
Q 62.703125 38.8125 62.703125 25.984375 
Q 62.703125 13.1875 54.90625 5.875 
Q 47.125 -1.421875 33.40625 -1.421875 
z
" id="DejaVuSerif-Bold-111"/>
       <path d="M 61.921875 51.90625 
L 61.921875 5.90625 
L 69.28125 5.90625 
L 69.28125 0 
L 44.578125 0 
L 44.578125 7.328125 
Q 41.5 2.6875 37.5 0.625 
Q 33.5 -1.421875 27.390625 -1.421875 
Q 18.65625 -1.421875 14.1875 3.734375 
Q 9.71875 8.890625 9.71875 18.890625 
L 9.71875 46 
L 2.296875 46 
L 2.296875 51.90625 
L 27 51.90625 
L 27 21.578125 
Q 27 11.921875 28.609375 9.296875 
Q 30.21875 6.6875 34.515625 6.6875 
Q 39.75 6.6875 42.15625 10.546875 
Q 44.578125 14.40625 44.578125 22.796875 
L 44.578125 46 
L 38.28125 46 
L 38.28125 51.90625 
z
" id="DejaVuSerif-Bold-117"/>
       <path d="M 27 28.515625 
L 27 23.390625 
Q 27 14.3125 29.3125 10.25 
Q 31.640625 6.203125 36.8125 6.203125 
Q 42.140625 6.203125 44.3125 10.5 
Q 46.484375 14.796875 46.484375 25.984375 
Q 46.484375 37.15625 44.3125 41.421875 
Q 42.140625 45.703125 36.8125 45.703125 
Q 31.640625 45.703125 29.3125 41.640625 
Q 27 37.59375 27 28.515625 
z
M 9.71875 46 
L 2.296875 46 
L 2.296875 51.90625 
L 27 51.90625 
L 27 45.3125 
Q 29.203125 49.359375 32.90625 51.34375 
Q 36.625 53.328125 42.09375 53.328125 
Q 53.171875 53.328125 59.546875 46.015625 
Q 65.921875 38.71875 65.921875 25.984375 
Q 65.921875 13.234375 59.546875 5.90625 
Q 53.171875 -1.421875 42.09375 -1.421875 
Q 36.625 -1.421875 32.90625 0.5625 
Q 29.203125 2.546875 27 6.59375 
L 27 -14.890625 
L 35.015625 -14.890625 
L 35.015625 -20.796875 
L 2.296875 -20.796875 
L 2.296875 -14.890625 
L 9.71875 -14.890625 
z
" id="DejaVuSerif-Bold-112"/>
       <path d="M 28.078125 5.90625 
L 35.5 5.90625 
L 35.5 0 
L 3.421875 0 
L 3.421875 5.90625 
L 10.796875 5.90625 
L 10.796875 70.125 
L 3.421875 70.125 
L 3.421875 75.984375 
L 28.078125 75.984375 
z
" id="DejaVuSerif-Bold-108"/>
       <path d="M 9.1875 66.609375 
Q 9.1875 70.5625 11.921875 73.265625 
Q 14.65625 75.984375 18.609375 75.984375 
Q 22.46875 75.984375 25.171875 73.265625 
Q 27.875 70.5625 27.875 66.609375 
Q 27.875 62.75 25.171875 60.03125 
Q 22.46875 57.328125 18.609375 57.328125 
Q 14.65625 57.328125 11.921875 60.015625 
Q 9.1875 62.703125 9.1875 66.609375 
z
M 28.078125 5.90625 
L 35.5 5.90625 
L 35.5 0 
L 3.421875 0 
L 3.421875 5.90625 
L 10.796875 5.90625 
L 10.796875 46 
L 3.421875 46 
L 3.421875 51.90625 
L 28.078125 51.90625 
z
" id="DejaVuSerif-Bold-105"/>
       <path d="M 60.203125 46 
L 60.203125 0.6875 
Q 60.203125 -10.25 52.40625 -16.234375 
Q 44.625 -22.21875 30.421875 -22.21875 
Q 25.25 -22.21875 19.921875 -21.40625 
Q 14.59375 -20.609375 8.984375 -19 
L 8.984375 -6.59375 
L 14.5 -6.59375 
Q 15.234375 -11.71875 18.625 -14.203125 
Q 22.015625 -16.703125 28.328125 -16.703125 
Q 36.328125 -16.703125 39.625 -12.859375 
Q 42.921875 -9.03125 42.921875 0.6875 
L 42.921875 6.59375 
Q 40.71875 2.546875 36.984375 0.5625 
Q 33.25 -1.421875 27.78125 -1.421875 
Q 16.75 -1.421875 10.421875 5.90625 
Q 4.109375 13.234375 4.109375 25.984375 
Q 4.109375 38.765625 10.421875 46.046875 
Q 16.75 53.328125 27.78125 53.328125 
Q 33.25 53.328125 36.984375 51.34375 
Q 40.71875 49.359375 42.921875 45.3125 
L 42.921875 51.90625 
L 67.578125 51.90625 
L 67.578125 46 
z
M 42.921875 28.515625 
Q 42.921875 37.59375 40.578125 41.640625 
Q 38.234375 45.703125 33.109375 45.703125 
Q 27.734375 45.703125 25.5625 41.421875 
Q 23.390625 37.15625 23.390625 25.984375 
Q 23.390625 14.796875 25.578125 10.5 
Q 27.78125 6.203125 33.109375 6.203125 
Q 38.234375 6.203125 40.578125 10.25 
Q 42.921875 14.3125 42.921875 23.390625 
z
" id="DejaVuSerif-Bold-103"/>
       <path d="M -19.90625 76 
L -17.296875 76 
Q -20 60.796875 -40 60.796875 
Q -44.703125 60.796875 -48.390625 61.1875 
Q -52.09375 61.59375 -54.4375 62.09375 
Q -56.796875 62.59375 -63.1875 64.09375 
Q -69.59375 65.59375 -75.09375 66.796875 
Q -89.703125 69.90625 -95.203125 69.90625 
Q -109.703125 69.90625 -112.59375 60.796875 
L -115.203125 60.796875 
Q -112.5 76 -93.703125 76 
Q -84.59375 76 -58.09375 69.90625 
Q -44.40625 66.703125 -37.5 66.703125 
Q -22.203125 66.703125 -19.90625 76 
z
" id="STIXSizeTwoSym-Regular-771"/>
       <path d="M 10.796875 0 
L 10.796875 46 
L 3.421875 46 
L 3.421875 51.90625 
L 28.078125 51.90625 
L 28.078125 44.578125 
Q 31.203125 49.21875 35.203125 51.265625 
Q 39.203125 53.328125 45.3125 53.328125 
Q 54.046875 53.328125 58.5 48.140625 
Q 62.984375 43.109375 62.984375 33.015625 
L 62.984375 -20.796875 
L 45.703125 -20.796875 
L 45.703125 33.5 
Q 45.703125 40.09375 44.015625 42.65625 
Q 42.328125 45.21875 38.1875 45.21875 
Q 32.953125 45.21875 30.515625 41.375 
Q 28.078125 37.546875 28.078125 29.203125 
L 28.078125 0 
z
" id="DejaVuSerif-Bold-951"/>
       <path d="M 1.3125 -9.625 
Q 6.390625 -5.515625 8.78125 -0.4375 
Q 11.1875 4.640625 11.1875 11.375 
L 11.1875 15.578125 
L 25.09375 15.578125 
L 25.09375 15.1875 
Q 25.09375 4.390625 20.578125 -3.390625 
Q 16.0625 -11.1875 6.6875 -16.5 
z
" id="DejaVuSerif-Bold-44"/>
       <path d="M 60.6875 43.40625 
Q 64.3125 48.578125 68.5 50.953125 
Q 72.703125 53.328125 78.328125 53.328125 
Q 87.25 53.328125 91.671875 48.265625 
Q 96.09375 43.21875 96.09375 33.015625 
L 96.09375 5.90625 
L 103.515625 5.90625 
L 103.515625 0 
L 72.609375 0 
L 72.609375 5.90625 
L 78.8125 5.90625 
L 78.8125 30.421875 
Q 78.8125 40.140625 77.3125 42.671875 
Q 75.828125 45.21875 71.78125 45.21875 
Q 67.1875 45.21875 64.640625 41.671875 
Q 62.109375 38.140625 62.109375 31.59375 
L 62.109375 5.90625 
L 68.3125 5.90625 
L 68.3125 0 
L 38.625 0 
L 38.625 5.90625 
L 44.828125 5.90625 
L 44.828125 30.421875 
Q 44.828125 40.140625 43.3125 42.671875 
Q 41.796875 45.21875 37.796875 45.21875 
Q 33.15625 45.21875 30.609375 41.671875 
Q 28.078125 38.140625 28.078125 31.59375 
L 28.078125 5.90625 
L 34.28125 5.90625 
L 34.28125 0 
L 3.421875 0 
L 3.421875 5.90625 
L 10.796875 5.90625 
L 10.796875 46 
L 3.421875 46 
L 3.421875 51.90625 
L 28.078125 51.90625 
L 28.078125 44.578125 
Q 31.109375 49.125 35.015625 51.21875 
Q 38.921875 53.328125 44.28125 53.328125 
Q 50.640625 53.328125 54.59375 50.90625 
Q 58.546875 48.484375 60.6875 43.40625 
z
" id="DejaVuSerif-Bold-109"/>
       <path d="M 12.5 75.984375 
L 40.1875 75.984375 
L 40.1875 70.125 
L 29.78125 70.125 
L 29.78125 -7.328125 
L 40.1875 -7.328125 
L 40.1875 -13.1875 
L 12.5 -13.1875 
z
" id="DejaVuSerif-Bold-91"/>
       <path d="M 8.109375 7.90625 
Q 8.109375 11.71875 10.84375 14.453125 
Q 13.578125 17.1875 17.390625 17.1875 
Q 21.234375 17.1875 23.96875 14.453125 
Q 26.703125 11.71875 26.703125 7.90625 
Q 26.703125 4.046875 23.96875 1.3125 
Q 21.234375 -1.421875 17.390625 -1.421875 
Q 13.578125 -1.421875 10.84375 1.3125 
Q 8.109375 4.046875 8.109375 7.90625 
z
" id="DejaVuSerif-Bold-46"/>
       <path d="M 34.8125 75.984375 
L 34.8125 -13.1875 
L 7.078125 -13.1875 
L 7.078125 -7.328125 
L 17.484375 -7.328125 
L 17.484375 70.125 
L 7.078125 70.125 
L 7.078125 75.984375 
z
" id="DejaVuSerif-Bold-93"/>
      </defs>
      <use transform="translate(0 0.921875)" xlink:href="#DejaVuSerif-Bold-32"/>
      <use transform="translate(34.814453 0.921875)" xlink:href="#DejaVuSerif-Bold-77"/>
      <use transform="translate(145.507812 0.921875)" xlink:href="#DejaVuSerif-Bold-101"/>
      <use transform="translate(209.130859 0.921875)" xlink:href="#DejaVuSerif-Bold-97"/>
      <use transform="translate(273.925781 0.921875)" xlink:href="#DejaVuSerif-Bold-110"/>
      <use transform="translate(346.630859 0.921875)" xlink:href="#DejaVuSerif-Bold-32"/>
      <use transform="translate(381.445312 0.921875)" xlink:href="#DejaVuSerif-Bold-99"/>
      <use transform="translate(442.333984 0.921875)" xlink:href="#DejaVuSerif-Bold-111"/>
      <use transform="translate(509.033203 0.921875)" xlink:href="#DejaVuSerif-Bold-117"/>
      <use transform="translate(581.738281 0.921875)" xlink:href="#DejaVuSerif-Bold-112"/>
      <use transform="translate(651.660156 0.921875)" xlink:href="#DejaVuSerif-Bold-108"/>
      <use transform="translate(689.648438 0.921875)" xlink:href="#DejaVuSerif-Bold-105"/>
      <use transform="translate(727.636719 0.921875)" xlink:href="#DejaVuSerif-Bold-110"/>
      <use transform="translate(800.341797 0.921875)" xlink:href="#DejaVuSerif-Bold-103"/>
      <use transform="translate(870.263672 0.921875)" xlink:href="#DejaVuSerif-Bold-32"/>
      <use transform="translate(999.785645 21.765625)scale(0.742599)" xlink:href="#STIXSizeTwoSym-Regular-771"/>
      <use transform="translate(905.078125 0.921875)" xlink:href="#DejaVuSerif-Bold-951"/>
      <use transform="translate(991.036373 -14.65)scale(0.7)" xlink:href="#DejaVuSerif-Bold-108"/>
      <use transform="translate(1017.62817 -14.65)scale(0.7)" xlink:href="#DejaVuSerif-Bold-44"/>
      <use transform="translate(1056.811764 -14.65)scale(0.7)" xlink:href="#DejaVuSerif-Bold-109"/>
      <use transform="translate(1133.474459 0.921875)" xlink:href="#DejaVuSerif-Bold-32"/>
      <use transform="translate(1168.288912 0.921875)" xlink:href="#DejaVuSerif-Bold-32"/>
      <use transform="translate(1203.103365 0.921875)" xlink:href="#DejaVuSerif-Bold-91"/>
      <use transform="translate(1250.417819 0.921875)" xlink:href="#DejaVuSerif-Bold-117"/>
      <use transform="translate(1323.122897 0.921875)" xlink:href="#DejaVuSerif-Bold-46"/>
      <use transform="translate(1357.93735 0.921875)" xlink:href="#DejaVuSerif-Bold-97"/>
      <use transform="translate(1422.732272 0.921875)" xlink:href="#DejaVuSerif-Bold-46"/>
      <use transform="translate(1457.546725 0.921875)" xlink:href="#DejaVuSerif-Bold-93"/>
     </g>
    </g>
   </g>
   <g id="line2d_25">
    <path clip-path="url(#pf361283da6)" d="M 115.363636 228.861818 
L 152.233083 228.76857 
L 163.675325 228.315257 
L 170.032126 228.437003 
L 172.574846 228.240154 
L 175.117567 227.839955 
L 181.474368 226.575901 
L 184.017088 226.509976 
L 190.373889 226.951443 
L 191.645249 226.711626 
L 192.91661 226.246463 
L 194.18797 225.536753 
L 199.273411 221.90271 
L 200.544771 221.444239 
L 201.816131 221.289093 
L 203.087491 221.425667 
L 204.358852 221.80217 
L 206.901572 222.722696 
L 208.172932 222.832934 
L 209.444293 222.403074 
L 210.715653 221.314576 
L 211.987013 219.6841 
L 214.529733 215.99429 
L 215.801094 214.388819 
L 217.072454 213.088877 
L 218.343814 212.151099 
L 219.615174 211.62643 
L 220.886535 211.540495 
L 223.429255 212.073671 
L 224.700615 211.909481 
L 225.971975 211.050037 
L 227.243336 209.667063 
L 232.328776 203.188646 
L 234.871497 200.563488 
L 237.414217 198.441237 
L 238.685578 197.045875 
L 239.956938 194.819854 
L 241.228298 192.200639 
L 242.499658 190.049875 
L 243.771018 188.498486 
L 245.042379 187.362067 
L 246.313739 186.515944 
L 247.585099 185.893966 
L 251.39918 184.425343 
L 252.67054 183.37093 
L 253.9419 180.934028 
L 256.484621 172.641528 
L 257.755981 169.315377 
L 259.027341 166.647336 
L 260.298701 164.698728 
L 261.570062 163.559244 
L 262.841422 163.061606 
L 265.384142 162.635164 
L 266.655502 161.988895 
L 267.926863 159.965205 
L 269.198223 155.125222 
L 270.469583 150.748368 
L 271.740943 149.509003 
L 273.012303 148.674908 
L 274.283664 147.127009 
L 275.555024 145.764424 
L 276.826384 145.387675 
L 278.097744 145.499586 
L 279.369105 145.231377 
L 280.640465 144.090579 
L 281.911825 141.395862 
L 283.183185 134.928297 
L 284.454545 126.082881 
L 285.725906 121.228592 
L 286.997266 120.907735 
L 288.268626 122.586505 
L 289.539986 123.029367 
L 290.811347 124.016209 
L 292.082707 127.166732 
L 293.354067 130.930177 
L 294.625427 133.183225 
L 295.896787 132.470314 
L 297.168148 126.572462 
L 298.439508 114.427784 
L 299.710868 106.804798 
L 300.982228 102.14407 
L 302.253589 99.966608 
L 303.524949 101.328111 
L 304.796309 102.402418 
L 306.067669 104.685448 
L 307.339029 109.093228 
L 309.88175 119.293717 
L 311.15311 120.1682 
L 312.42447 109.451628 
L 313.69583 101.091216 
L 316.238551 89.532233 
L 317.509911 84.603654 
L 318.781271 83.671236 
L 321.323992 95.694663 
L 323.866712 105.049035 
L 325.138072 108.767261 
L 326.409433 104.737896 
L 327.680793 101.510622 
L 328.952153 97.837034 
L 330.223513 92.080385 
L 331.494874 84.587475 
L 332.766234 75.18231 
L 334.037594 68.498182 
L 336.580314 88.017705 
L 337.851675 93.347634 
L 339.123035 97.394548 
L 340.394395 94.789398 
L 341.665755 97.177553 
L 342.937116 102.48622 
L 344.208476 102.918908 
L 345.479836 98.303935 
L 346.751196 90.410751 
L 348.022556 78.222123 
L 349.293917 74.634805 
L 350.565277 78.523185 
L 351.836637 87.706015 
L 353.107997 90.117449 
L 354.379357 85.171126 
L 355.650718 85.83899 
L 356.922078 89.895802 
L 358.193438 95.703049 
L 359.464798 102.067382 
L 360.736159 100.709212 
L 362.007519 93.19276 
L 363.278879 89.266866 
L 364.550239 88.918526 
L 365.821599 90.141595 
L 367.09296 99.689255 
L 368.36432 97.469016 
L 369.63568 95.995699 
L 370.90704 92.131859 
L 372.178401 92.539361 
L 373.449761 95.937062 
L 374.721121 98.878427 
L 375.992481 96.548223 
L 377.263841 95.002873 
L 378.535202 96.363496 
L 379.806562 92.563685 
L 381.077922 95.047846 
L 382.349282 105.231998 
L 383.620643 108.564031 
L 384.892003 102.024565 
L 386.163363 112.17962 
L 387.434723 111.631422 
L 388.706083 105.773798 
L 389.977444 107.857867 
L 391.248804 108.473077 
L 392.520164 108.463935 
L 393.791524 105.062032 
L 395.062884 102.668903 
L 396.334245 98.894052 
L 397.605605 106.751061 
L 398.876965 102.088265 
L 400.148325 117.429285 
L 401.419686 111.009993 
L 402.691046 116.583499 
L 403.962406 119.147151 
L 405.233766 115.01219 
L 406.505126 123.494333 
L 407.776487 128.490247 
L 409.047847 120.805327 
L 410.319207 114.359818 
L 411.590567 118.993849 
L 412.861928 106.848266 
L 414.133288 123.831891 
L 415.404648 114.732758 
L 416.676008 122.727426 
L 417.947368 115.467598 
L 419.218729 120.276986 
L 420.490089 115.410244 
L 421.761449 125.692877 
L 423.032809 134.870376 
L 424.30417 130.835629 
L 425.57553 139.108243 
L 426.84689 123.947875 
L 428.11825 141.760198 
L 429.38961 132.391772 
L 430.660971 141.924635 
L 431.932331 126.744448 
L 433.203691 131.348401 
L 434.475051 114.271299 
L 435.746411 125.129791 
L 437.017772 115.061967 
L 438.289132 134.465706 
L 439.560492 126.403539 
L 440.831852 131.28951 
L 442.103213 129.245277 
L 443.374573 139.846642 
L 444.645933 141.118137 
L 445.917293 144.699325 
L 447.188653 135.288298 
L 448.460014 126.965603 
L 449.731374 131.187793 
L 451.002734 114.22003 
L 452.274094 120.32587 
L 453.545455 127.702719 
L 454.816815 113.968786 
L 456.088175 133.025127 
L 457.359535 132.554092 
L 458.630895 133.610952 
L 459.902256 137.945238 
L 461.173616 137.375055 
L 462.444976 139.365859 
L 463.716336 131.258055 
L 464.987697 121.979755 
L 466.259057 91.431943 
L 467.530417 119.687517 
L 468.801777 119.414707 
L 470.073137 125.840956 
L 471.344498 103.416183 
L 472.615858 126.024216 
L 473.887218 135.977562 
L 475.158578 130.600844 
L 476.429938 116.609424 
L 477.701299 132.192466 
L 478.972659 117.063204 
L 480.244019 107.526839 
L 481.515379 113.122386 
L 482.78674 111.632791 
L 484.0581 104.655357 
L 485.32946 110.643608 
L 486.60082 112.917638 
L 487.87218 107.662097 
L 489.143541 127.390103 
L 490.414901 124.584116 
L 491.686261 124.717317 
L 492.957621 118.62939 
L 494.228982 106.30504 
L 495.500342 104.665248 
L 496.771702 104.890871 
L 498.043062 103.976552 
L 499.314422 105.21355 
L 500.585783 105.077775 
L 501.857143 100.124782 
L 503.128503 106.335862 
L 504.399863 110.600785 
L 505.671224 104.439361 
L 506.942584 114.621391 
L 508.213944 107.328653 
L 509.485304 100.792134 
L 510.756664 107.045137 
L 512.028025 103.430322 
L 513.299385 99.360804 
L 514.570745 102.370206 
L 515.842105 101.112888 
L 517.113465 100.848028 
L 518.384826 105.995653 
L 519.656186 105.718596 
L 520.927546 112.46565 
L 522.198906 92.371081 
L 523.470267 106.854985 
L 524.741627 108.153464 
L 526.012987 105.68924 
L 527.284347 96.296066 
L 528.555707 99.660304 
L 529.827068 94.691692 
L 531.098428 101.431121 
L 532.369788 103.717206 
L 533.641148 101.846928 
L 534.912509 102.18564 
L 536.183869 102.398009 
L 537.455229 103.195656 
L 538.726589 112.332505 
L 539.997949 112.435904 
L 541.26931 110.021474 
L 542.54067 96.913286 
L 543.81203 109.035896 
L 545.08339 108.435583 
L 546.354751 107.58764 
L 548.897471 103.318717 
L 550.168831 96.597929 
L 551.440191 91.00176 
L 552.711552 105.642211 
L 553.982912 118.450528 
L 555.254272 120.69752 
L 556.525632 120.114469 
L 557.796992 120.198531 
L 559.068353 121.937201 
L 560.339713 122.477655 
L 561.611073 122.143549 
L 562.882433 121.07323 
L 565.425154 113.018293 
L 566.696514 112.386013 
L 567.967874 112.98903 
L 569.239234 111.172639 
L 570.510595 121.58379 
L 571.781955 120.337201 
L 573.053315 122.021487 
L 574.324675 124.732666 
L 575.596036 126.419793 
L 576.867396 122.407003 
L 578.138756 128.514821 
L 579.410116 122.719896 
L 580.681476 119.904688 
L 581.952837 119.774874 
L 583.224197 118.71588 
L 584.495557 119.071214 
L 585.766917 114.838498 
L 587.038278 128.297659 
L 588.309638 130.705654 
L 589.580998 133.644528 
L 590.852358 137.414788 
L 592.123718 141.552574 
L 593.395079 138.162123 
L 594.666439 136.428775 
L 595.937799 137.035298 
L 597.209159 138.528286 
L 598.480519 139.608388 
L 599.75188 138.494955 
L 601.02324 142.347949 
L 602.2946 142.294933 
L 603.56596 139.591614 
L 604.837321 137.831061 
L 606.108681 137.575842 
L 607.380041 131.02359 
L 608.651401 136.852033 
L 609.922761 145.058649 
L 611.194122 148.641368 
L 612.465482 150.105091 
L 613.736842 148.569049 
L 615.008202 139.471571 
L 616.279563 134.381487 
L 617.550923 137.165234 
L 618.822283 137.227433 
L 620.093643 142.250465 
L 621.365003 141.881818 
L 622.636364 143.870544 
L 622.636364 143.870544 
" style="fill:none;stroke:#1f77b4;stroke-linecap:square;stroke-width:1.5;"/>
   </g>
   <g id="line2d_26">
    <path clip-path="url(#pf361283da6)" d="M 115.363636 228.861818 
L 152.233083 228.76865 
L 163.675325 228.315461 
L 170.032126 228.436214 
L 172.574846 228.238694 
L 175.117567 227.837624 
L 181.474368 226.570124 
L 184.017088 226.502832 
L 190.373889 226.944065 
L 191.645249 226.704107 
L 192.91661 226.238445 
L 194.18797 225.527846 
L 199.273411 221.888411 
L 200.544771 221.42869 
L 201.816131 221.27258 
L 203.087491 221.408593 
L 204.358852 221.784988 
L 206.901572 222.706779 
L 208.172932 222.818826 
L 209.444293 222.392481 
L 210.715653 221.310267 
L 211.987013 219.689098 
L 214.529733 216.021005 
L 215.801094 214.424434 
L 217.072454 213.130792 
L 218.343814 212.196441 
L 219.615174 211.67223 
L 220.886535 211.583679 
L 223.429255 212.105964 
L 224.700615 211.941626 
L 225.971975 211.094303 
L 227.243336 209.737246 
L 232.328776 203.406423 
L 234.871497 200.831486 
L 237.414217 198.729324 
L 238.685578 197.335709 
L 239.956938 195.120195 
L 241.228298 192.530905 
L 242.499658 190.423234 
L 243.771018 188.920791 
L 245.042379 187.836076 
L 246.313739 187.041012 
L 247.585099 186.465728 
L 251.39918 185.104223 
L 252.67054 184.08306 
L 253.9419 181.696997 
L 256.484621 173.600956 
L 257.755981 170.374574 
L 259.027341 167.795653 
L 260.298701 165.920055 
L 261.570062 164.828819 
L 262.841422 164.354158 
L 265.384142 163.938028 
L 266.655502 163.301607 
L 267.926863 161.3187 
L 269.198223 156.612695 
L 270.469583 152.439188 
L 271.740943 151.366815 
L 273.012303 150.679226 
L 275.555024 148.034299 
L 276.826384 147.694939 
L 278.097744 147.778139 
L 279.369105 147.461498 
L 280.640465 146.283065 
L 281.911825 143.583098 
L 283.183185 137.21898 
L 284.454545 128.655476 
L 285.725906 124.082964 
L 286.997266 123.976871 
L 288.268626 125.826201 
L 289.539986 126.467942 
L 290.811347 127.577869 
L 292.082707 130.654418 
L 293.354067 134.218882 
L 294.625427 136.272212 
L 295.896787 135.44083 
L 297.168148 129.572478 
L 298.439508 117.748285 
L 299.710868 110.467142 
L 300.982228 106.125911 
L 302.253589 104.279635 
L 303.524949 105.938109 
L 304.796309 107.295212 
L 306.067669 109.651378 
L 307.339029 113.862806 
L 308.61039 118.814333 
L 309.88175 123.296378 
L 311.15311 123.843512 
L 312.42447 113.265527 
L 313.69583 105.203155 
L 316.238551 94.322666 
L 317.509911 89.889746 
L 318.781271 89.54177 
L 321.323992 101.605947 
L 322.595352 106.21359 
L 323.866712 110.328636 
L 325.138072 113.6204 
L 326.409433 109.328258 
L 328.952153 102.362588 
L 330.223513 96.867872 
L 331.494874 89.832372 
L 332.766234 81.193184 
L 334.037594 75.42794 
L 335.308954 85.404501 
L 336.580314 94.353504 
L 337.851675 99.316402 
L 339.123035 103.00469 
L 340.394395 100.192115 
L 341.665755 102.286938 
L 342.937116 107.043114 
L 344.208476 107.233033 
L 345.479836 102.853703 
L 346.751196 95.562321 
L 348.022556 84.626759 
L 349.293917 81.495236 
L 350.565277 85.232694 
L 351.836637 93.911913 
L 353.107997 95.985168 
L 354.379357 90.895083 
L 355.650718 91.402118 
L 356.922078 95.070348 
L 359.464798 105.774829 
L 360.736159 104.444888 
L 362.007519 97.916033 
L 363.278879 94.777166 
L 364.550239 94.471236 
L 365.821599 95.646231 
L 367.09296 104.798133 
L 368.36432 102.413278 
L 369.63568 100.943482 
L 370.90704 97.026471 
L 372.178401 97.118027 
L 373.449761 100.070473 
L 374.721121 102.309086 
L 375.992481 99.672595 
L 377.263841 98.689446 
L 378.535202 99.867327 
L 379.806562 96.306364 
L 381.077922 98.595479 
L 382.349282 108.346478 
L 383.620643 111.817847 
L 384.892003 105.358877 
L 386.163363 114.951315 
L 387.434723 114.536618 
L 388.706083 108.578242 
L 389.977444 110.440908 
L 391.248804 110.660286 
L 392.520164 110.110791 
L 393.791524 106.54589 
L 395.062884 103.874151 
L 396.334245 100.296617 
L 397.605605 107.610511 
L 398.876965 103.309027 
L 400.148325 117.77816 
L 401.419686 111.614286 
L 402.691046 117.030976 
L 403.962406 119.438986 
L 405.233766 115.827439 
L 406.505126 123.88499 
L 407.776487 127.057468 
L 409.047847 120.38158 
L 410.319207 112.952682 
L 411.590567 118.576373 
L 412.861928 105.196609 
L 414.133288 122.74514 
L 415.404648 112.382264 
L 416.676008 120.884639 
L 417.947368 112.93496 
L 419.218729 118.063966 
L 420.490089 113.713378 
L 421.761449 122.461465 
L 423.032809 130.39333 
L 424.30417 127.06415 
L 425.57553 134.469633 
L 426.84689 121.420494 
L 428.11825 136.866417 
L 429.38961 129.419812 
L 430.660971 136.592096 
L 431.932331 123.307719 
L 433.203691 125.997843 
L 434.475051 111.238296 
L 435.746411 118.608276 
L 437.017772 109.97199 
L 438.289132 128.303624 
L 439.560492 119.05812 
L 440.831852 126.148041 
L 442.103213 121.8593 
L 443.374573 132.908184 
L 444.645933 135.263817 
L 445.917293 137.27972 
L 447.188653 128.595064 
L 448.460014 121.821405 
L 449.731374 123.80623 
L 451.002734 107.047622 
L 452.274094 115.345863 
L 453.545455 120.052453 
L 454.816815 108.487703 
L 456.088175 125.904395 
L 457.359535 123.406847 
L 459.902256 129.763168 
L 461.173616 128.605104 
L 462.444976 130.157295 
L 464.987697 113.618094 
L 466.259057 86.566108 
L 467.530417 112.209165 
L 468.801777 113.050838 
L 470.073137 117.515966 
L 471.344498 99.649252 
L 472.615858 119.391691 
L 473.887218 127.42091 
L 475.158578 122.652866 
L 476.429938 110.626135 
L 477.701299 121.651848 
L 478.972659 107.326534 
L 480.244019 101.338267 
L 481.515379 104.654203 
L 482.78674 103.751968 
L 484.0581 98.83349 
L 485.32946 104.456411 
L 486.60082 107.393455 
L 487.87218 101.649315 
L 489.143541 119.746276 
L 490.414901 117.35151 
L 491.686261 116.107147 
L 492.957621 110.050145 
L 494.228982 100.678874 
L 495.500342 98.781053 
L 496.771702 97.544145 
L 498.043062 99.170885 
L 499.314422 99.691881 
L 500.585783 99.556863 
L 501.857143 97.21647 
L 503.128503 101.172291 
L 504.399863 106.901892 
L 505.671224 98.852625 
L 506.942584 107.526631 
L 508.213944 100.65391 
L 509.485304 96.634412 
L 510.756664 100.797533 
L 513.299385 94.161899 
L 514.570745 97.682959 
L 515.842105 96.715231 
L 517.113465 98.180907 
L 518.384826 101.727158 
L 519.656186 102.661905 
L 520.927546 108.114668 
L 522.198906 90.070905 
L 523.470267 102.62373 
L 524.741627 103.446317 
L 526.012987 100.78511 
L 527.284347 94.390101 
L 528.555707 95.938529 
L 529.827068 92.468493 
L 531.098428 96.809036 
L 532.369788 99.176637 
L 533.641148 98.052273 
L 534.912509 98.337691 
L 536.183869 99.2279 
L 537.455229 103.097397 
L 538.726589 108.976666 
L 539.997949 109.085088 
L 541.26931 107.204752 
L 542.54067 95.696638 
L 543.81203 106.5422 
L 546.354751 104.101433 
L 548.897471 99.92307 
L 550.168831 93.053458 
L 551.440191 89.451296 
L 552.711552 104.408817 
L 553.982912 114.619022 
L 555.254272 116.642318 
L 556.525632 116.955133 
L 557.796992 117.897428 
L 559.068353 119.331062 
L 560.339713 119.583366 
L 561.611073 119.104271 
L 562.882433 117.913291 
L 564.153794 113.659773 
L 565.425154 110.147754 
L 566.696514 109.733742 
L 567.967874 110.579765 
L 569.239234 111.870109 
L 570.510595 118.241791 
L 571.781955 117.982244 
L 573.053315 119.365565 
L 574.324675 121.606266 
L 575.596036 122.936644 
L 576.867396 118.621251 
L 578.138756 125.302964 
L 579.410116 120.109339 
L 580.681476 117.663932 
L 581.952837 117.881814 
L 583.224197 117.094153 
L 584.495557 118.222266 
L 585.766917 117.679659 
L 587.038278 125.239014 
L 588.309638 126.639201 
L 589.580998 129.144175 
L 592.123718 135.390918 
L 593.395079 131.717926 
L 594.666439 130.538058 
L 595.937799 131.945284 
L 597.209159 134.291883 
L 598.480519 136.175511 
L 599.75188 136.699152 
L 601.02324 142.214363 
L 602.2946 141.472503 
L 603.56596 138.996251 
L 604.837321 137.576269 
L 606.108681 136.694438 
L 607.380041 127.738092 
L 608.651401 132.33121 
L 609.922761 138.096825 
L 611.194122 141.704591 
L 612.465482 143.683962 
L 613.736842 142.543547 
L 615.008202 138.738858 
L 616.279563 135.933587 
L 617.550923 138.109851 
L 618.822283 137.018779 
L 620.093643 141.036175 
L 621.365003 138.885152 
L 622.636364 141.088287 
L 622.636364 141.088287 
" style="fill:none;stroke:#ff7f0e;stroke-linecap:square;stroke-width:1.5;"/>
   </g>
   <g id="patch_3">
    <path d="M 90 236.88 
L 90 60.48 
" style="fill:none;stroke:#000000;stroke-linecap:square;stroke-linejoin:miter;stroke-width:0.8;"/>
   </g>
   <g id="patch_4">
    <path d="M 648 236.88 
L 648 60.48 
" style="fill:none;stroke:#000000;stroke-linecap:square;stroke-linejoin:miter;stroke-width:0.8;"/>
   </g>
   <g id="patch_5">
    <path d="M 90 236.88 
L 648 236.88 
" style="fill:none;stroke:#000000;stroke-linecap:square;stroke-linejoin:miter;stroke-width:0.8;"/>
   </g>
   <g id="patch_6">
    <path d="M 90 60.48 
L 648 60.48 
" style="fill:none;stroke:#000000;stroke-linecap:square;stroke-linejoin:miter;stroke-width:0.8;"/>
   </g>
   <g id="legend_1">
    <g id="patch_7">
     <path d="M 582.90625 97.83625 
L 641 97.83625 
Q 643 97.83625 643 95.83625 
L 643 67.48 
Q 643 65.48 641 65.48 
L 582.90625 65.48 
Q 580.90625 65.48 580.90625 67.48 
L 580.90625 95.83625 
Q 580.90625 97.83625 582.90625 97.83625 
z
" style="fill:#ffffff;opacity:0.8;stroke:#cccccc;stroke-linejoin:miter;"/>
    </g>
    <g id="line2d_27">
     <path d="M 584.90625 73.578438 
L 604.90625 73.578438 
" style="fill:none;stroke:#1f77b4;stroke-linecap:square;stroke-width:1.5;"/>
    </g>
    <g id="line2d_28"/>
    <g id="text_7">
     <!-- LP01 -->
     <g transform="translate(612.90625 77.078438)scale(0.1 -0.1)">
      <defs>
       <path d="M 5.515625 0 
L 5.515625 5.171875 
L 14.796875 5.171875 
L 14.796875 67.671875 
L 5.515625 67.671875 
L 5.515625 72.90625 
L 33.984375 72.90625 
L 33.984375 67.671875 
L 24.703125 67.671875 
L 24.703125 6 
L 58.015625 6 
L 58.015625 18.21875 
L 64.015625 18.21875 
L 64.015625 0 
z
" id="DejaVuSerif-76"/>
       <path d="M 24.703125 37.109375 
L 37.59375 37.109375 
Q 44.875 37.109375 48.671875 41.03125 
Q 52.484375 44.96875 52.484375 52.390625 
Q 52.484375 59.859375 48.671875 63.765625 
Q 44.875 67.671875 37.59375 67.671875 
L 24.703125 67.671875 
z
M 5.515625 0 
L 5.515625 5.171875 
L 14.796875 5.171875 
L 14.796875 67.671875 
L 5.515625 67.671875 
L 5.515625 72.90625 
L 39.984375 72.90625 
Q 50.921875 72.90625 57.3125 67.359375 
Q 63.71875 61.8125 63.71875 52.390625 
Q 63.71875 43.015625 57.3125 37.453125 
Q 50.921875 31.890625 39.984375 31.890625 
L 24.703125 31.890625 
L 24.703125 5.171875 
L 35.984375 5.171875 
L 35.984375 0 
z
" id="DejaVuSerif-80"/>
      </defs>
      <use xlink:href="#DejaVuSerif-76"/>
      <use x="66.40625" xlink:href="#DejaVuSerif-80"/>
      <use x="133.691406" xlink:href="#DejaVuSerif-48"/>
      <use x="197.314453" xlink:href="#DejaVuSerif-49"/>
     </g>
    </g>
    <g id="line2d_29">
     <path d="M 584.90625 88.256563 
L 604.90625 88.256563 
" style="fill:none;stroke:#ff7f0e;stroke-linecap:square;stroke-width:1.5;"/>
    </g>
    <g id="line2d_30"/>
    <g id="text_8">
     <!-- LP11 -->
     <g transform="translate(612.90625 91.756563)scale(0.1 -0.1)">
      <use xlink:href="#DejaVuSerif-76"/>
      <use x="66.40625" xlink:href="#DejaVuSerif-80"/>
      <use x="133.691406" xlink:href="#DejaVuSerif-49"/>
      <use x="197.314453" xlink:href="#DejaVuSerif-49"/>
     </g>
    </g>
   </g>
  </g>
  <g id="axes_2">
   <g id="patch_8">
    <path d="M 90 448.56 
L 648 448.56 
L 648 272.16 
L 90 272.16 
z
" style="fill:#ffffff;"/>
   </g>
   <g id="matplotlib.axis_3">
    <g id="xtick_8">
     <g id="line2d_31">
      <path clip-path="url(#p82cb17e6c2)" d="M 114.658111 448.56 
L 114.658111 272.16 
" style="fill:none;stroke:#b0b0b0;stroke-linecap:square;stroke-width:0.8;"/>
     </g>
     <g id="line2d_32">
      <g>
       <use style="stroke:#000000;stroke-width:0.8;" x="114.658111" xlink:href="#m4d712391df" y="448.56"/>
      </g>
     </g>
     <g id="text_9">
      <!-- 0 -->
      <g transform="translate(111.476861 463.158437)scale(0.1 -0.1)">
       <use xlink:href="#DejaVuSerif-48"/>
      </g>
     </g>
    </g>
    <g id="xtick_9">
     <g id="line2d_33">
      <path clip-path="url(#p82cb17e6c2)" d="M 199.321153 448.56 
L 199.321153 272.16 
" style="fill:none;stroke:#b0b0b0;stroke-linecap:square;stroke-width:0.8;"/>
     </g>
     <g id="line2d_34">
      <g>
       <use style="stroke:#000000;stroke-width:0.8;" x="199.321153" xlink:href="#m4d712391df" y="448.56"/>
      </g>
     </g>
     <g id="text_10">
      <!-- 1 -->
      <g transform="translate(196.139903 463.158437)scale(0.1 -0.1)">
       <use xlink:href="#DejaVuSerif-49"/>
      </g>
     </g>
    </g>
    <g id="xtick_10">
     <g id="line2d_35">
      <path clip-path="url(#p82cb17e6c2)" d="M 283.984195 448.56 
L 283.984195 272.16 
" style="fill:none;stroke:#b0b0b0;stroke-linecap:square;stroke-width:0.8;"/>
     </g>
     <g id="line2d_36">
      <g>
       <use style="stroke:#000000;stroke-width:0.8;" x="283.984195" xlink:href="#m4d712391df" y="448.56"/>
      </g>
     </g>
     <g id="text_11">
      <!-- 2 -->
      <g transform="translate(280.802945 463.158437)scale(0.1 -0.1)">
       <use xlink:href="#DejaVuSerif-50"/>
      </g>
     </g>
    </g>
    <g id="xtick_11">
     <g id="line2d_37">
      <path clip-path="url(#p82cb17e6c2)" d="M 368.647237 448.56 
L 368.647237 272.16 
" style="fill:none;stroke:#b0b0b0;stroke-linecap:square;stroke-width:0.8;"/>
     </g>
     <g id="line2d_38">
      <g>
       <use style="stroke:#000000;stroke-width:0.8;" x="368.647237" xlink:href="#m4d712391df" y="448.56"/>
      </g>
     </g>
     <g id="text_12">
      <!-- 3 -->
      <g transform="translate(365.465987 463.158437)scale(0.1 -0.1)">
       <defs>
        <path d="M 9.71875 69.828125 
Q 15.4375 71.96875 20.671875 73.09375 
Q 25.921875 74.21875 30.515625 74.21875 
Q 41.21875 74.21875 47.21875 69.59375 
Q 53.21875 64.984375 53.21875 56.78125 
Q 53.21875 50.203125 49.0625 45.78125 
Q 44.921875 41.359375 37.3125 39.796875 
Q 46.296875 38.53125 51.25 33.28125 
Q 56.203125 28.03125 56.203125 19.671875 
Q 56.203125 9.46875 49.34375 4.015625 
Q 42.484375 -1.421875 29.59375 -1.421875 
Q 23.875 -1.421875 18.421875 -0.1875 
Q 12.984375 1.03125 7.625 3.515625 
L 7.625 17.671875 
L 13.09375 17.671875 
Q 13.578125 10.640625 17.828125 7.03125 
Q 22.078125 3.421875 29.78125 3.421875 
Q 37.25 3.421875 41.578125 7.734375 
Q 45.90625 12.0625 45.90625 19.578125 
Q 45.90625 28.171875 41.453125 32.59375 
Q 37.015625 37.015625 28.421875 37.015625 
L 23.78125 37.015625 
L 23.78125 42 
L 26.21875 42 
Q 34.765625 42 39.03125 45.53125 
Q 43.3125 49.078125 43.3125 56.203125 
Q 43.3125 62.59375 39.796875 65.984375 
Q 36.28125 69.390625 29.6875 69.390625 
Q 23.09375 69.390625 19.453125 66.265625 
Q 15.828125 63.140625 15.1875 56.984375 
L 9.71875 56.984375 
z
" id="DejaVuSerif-51"/>
       </defs>
       <use xlink:href="#DejaVuSerif-51"/>
      </g>
     </g>
    </g>
    <g id="xtick_12">
     <g id="line2d_39">
      <path clip-path="url(#p82cb17e6c2)" d="M 453.310279 448.56 
L 453.310279 272.16 
" style="fill:none;stroke:#b0b0b0;stroke-linecap:square;stroke-width:0.8;"/>
     </g>
     <g id="line2d_40">
      <g>
       <use style="stroke:#000000;stroke-width:0.8;" x="453.310279" xlink:href="#m4d712391df" y="448.56"/>
      </g>
     </g>
     <g id="text_13">
      <!-- 4 -->
      <g transform="translate(450.129029 463.158437)scale(0.1 -0.1)">
       <defs>
        <path d="M 34.90625 24.703125 
L 34.90625 63.484375 
L 10.015625 24.703125 
z
M 56.390625 0 
L 23.1875 0 
L 23.1875 5.171875 
L 34.90625 5.171875 
L 34.90625 19.484375 
L 3.078125 19.484375 
L 3.078125 24.8125 
L 35.015625 74.21875 
L 44.671875 74.21875 
L 44.671875 24.703125 
L 58.59375 24.703125 
L 58.59375 19.484375 
L 44.671875 19.484375 
L 44.671875 5.171875 
L 56.390625 5.171875 
z
" id="DejaVuSerif-52"/>
       </defs>
       <use xlink:href="#DejaVuSerif-52"/>
      </g>
     </g>
    </g>
    <g id="xtick_13">
     <g id="line2d_41">
      <path clip-path="url(#p82cb17e6c2)" d="M 537.973322 448.56 
L 537.973322 272.16 
" style="fill:none;stroke:#b0b0b0;stroke-linecap:square;stroke-width:0.8;"/>
     </g>
     <g id="line2d_42">
      <g>
       <use style="stroke:#000000;stroke-width:0.8;" x="537.973322" xlink:href="#m4d712391df" y="448.56"/>
      </g>
     </g>
     <g id="text_14">
      <!-- 5 -->
      <g transform="translate(534.792072 463.158437)scale(0.1 -0.1)">
       <use xlink:href="#DejaVuSerif-53"/>
      </g>
     </g>
    </g>
    <g id="xtick_14">
     <g id="line2d_43">
      <path clip-path="url(#p82cb17e6c2)" d="M 622.636364 448.56 
L 622.636364 272.16 
" style="fill:none;stroke:#b0b0b0;stroke-linecap:square;stroke-width:0.8;"/>
     </g>
     <g id="line2d_44">
      <g>
       <use style="stroke:#000000;stroke-width:0.8;" x="622.636364" xlink:href="#m4d712391df" y="448.56"/>
      </g>
     </g>
     <g id="text_15">
      <!-- 6 -->
      <g transform="translate(619.455114 463.158437)scale(0.1 -0.1)">
       <defs>
        <path d="M 32.71875 3.421875 
Q 39.59375 3.421875 43.296875 8.46875 
Q 47.015625 13.53125 47.015625 23 
Q 47.015625 32.46875 43.296875 37.515625 
Q 39.59375 42.578125 32.71875 42.578125 
Q 25.734375 42.578125 22.0625 37.6875 
Q 18.40625 32.8125 18.40625 23.578125 
Q 18.40625 13.875 22.109375 8.640625 
Q 25.828125 3.421875 32.71875 3.421875 
z
M 16.796875 40.140625 
Q 20.125 43.796875 24.3125 45.59375 
Q 28.515625 47.40625 33.796875 47.40625 
Q 44.671875 47.40625 51 40.859375 
Q 57.328125 34.328125 57.328125 23 
Q 57.328125 11.921875 50.515625 5.25 
Q 43.703125 -1.421875 32.328125 -1.421875 
Q 19.96875 -1.421875 13.328125 7.78125 
Q 6.6875 17 6.6875 34.078125 
Q 6.6875 53.21875 14.546875 63.71875 
Q 22.40625 74.21875 36.71875 74.21875 
Q 40.578125 74.21875 44.828125 73.484375 
Q 49.078125 72.75 53.515625 71.296875 
L 53.515625 59.28125 
L 48 59.28125 
Q 47.40625 64.203125 44.234375 66.796875 
Q 41.0625 69.390625 35.6875 69.390625 
Q 26.21875 69.390625 21.578125 62.203125 
Q 16.9375 55.03125 16.796875 40.140625 
z
" id="DejaVuSerif-54"/>
       </defs>
       <use xlink:href="#DejaVuSerif-54"/>
      </g>
     </g>
    </g>
    <g id="text_16">
     <!-- Scatterer size [$\mu$m] -->
     <g transform="translate(320.2 476.838125)scale(0.1 -0.1)">
      <defs>
       <path d="M 9.28125 3.515625 
L 9.28125 20.125 
L 14.890625 20.0625 
Q 15.140625 11.765625 19.703125 7.78125 
Q 24.265625 3.8125 33.59375 3.8125 
Q 42.28125 3.8125 46.84375 7.25 
Q 51.421875 10.6875 51.421875 17.28125 
Q 51.421875 22.5625 48.65625 25.390625 
Q 45.90625 28.21875 37.015625 30.90625 
L 27.390625 33.796875 
Q 16.9375 36.96875 12.671875 41.703125 
Q 8.40625 46.4375 8.40625 54.6875 
Q 8.40625 63.96875 14.984375 69.09375 
Q 21.578125 74.21875 33.5 74.21875 
Q 38.578125 74.21875 44.625 73.109375 
Q 50.6875 72.015625 57.515625 69.921875 
L 57.515625 54.390625 
L 52 54.390625 
Q 51.171875 62.109375 46.84375 65.546875 
Q 42.53125 69 33.6875 69 
Q 25.984375 69 21.953125 65.84375 
Q 17.921875 62.703125 17.921875 56.6875 
Q 17.921875 51.46875 20.9375 48.484375 
Q 23.96875 45.515625 33.796875 42.578125 
L 42.828125 39.890625 
Q 52.734375 36.921875 56.953125 32.296875 
Q 61.1875 27.6875 61.1875 19.921875 
Q 61.1875 9.328125 54.390625 3.953125 
Q 47.609375 -1.421875 34.1875 -1.421875 
Q 28.171875 -1.421875 21.9375 -0.1875 
Q 15.71875 1.03125 9.28125 3.515625 
z
" id="DejaVuSerif-83"/>
       <path d="M 51.421875 15.578125 
Q 49.515625 7.28125 44.09375 2.921875 
Q 38.671875 -1.421875 30.078125 -1.421875 
Q 18.75 -1.421875 11.859375 6.078125 
Q 4.984375 13.578125 4.984375 25.984375 
Q 4.984375 38.421875 11.859375 45.875 
Q 18.75 53.328125 30.078125 53.328125 
Q 35.015625 53.328125 39.890625 52.171875 
Q 44.78125 51.03125 49.703125 48.6875 
L 49.703125 35.40625 
L 44.484375 35.40625 
Q 43.453125 42.234375 40.015625 45.359375 
Q 36.578125 48.484375 30.171875 48.484375 
Q 22.90625 48.484375 19.1875 42.84375 
Q 15.484375 37.203125 15.484375 25.984375 
Q 15.484375 14.75 19.171875 9.078125 
Q 22.859375 3.421875 30.171875 3.421875 
Q 35.984375 3.421875 39.453125 6.4375 
Q 42.921875 9.46875 44.1875 15.578125 
z
" id="DejaVuSerif-99"/>
       <path d="M 39.796875 16.3125 
L 39.796875 27.296875 
L 28.21875 27.296875 
Q 21.53125 27.296875 18.25 24.40625 
Q 14.984375 21.53125 14.984375 15.578125 
Q 14.984375 10.15625 18.296875 6.984375 
Q 21.625 3.8125 27.296875 3.8125 
Q 32.90625 3.8125 36.34375 7.28125 
Q 39.796875 10.75 39.796875 16.3125 
z
M 48.78125 32.421875 
L 48.78125 5.171875 
L 56.78125 5.171875 
L 56.78125 0 
L 39.796875 0 
L 39.796875 5.609375 
Q 36.8125 2 32.90625 0.28125 
Q 29 -1.421875 23.78125 -1.421875 
Q 15.140625 -1.421875 10.0625 3.171875 
Q 4.984375 7.765625 4.984375 15.578125 
Q 4.984375 23.640625 10.796875 28.078125 
Q 16.609375 32.515625 27.203125 32.515625 
L 39.796875 32.515625 
L 39.796875 36.078125 
Q 39.796875 42 36.203125 45.234375 
Q 32.625 48.484375 26.125 48.484375 
Q 20.75 48.484375 17.578125 46.046875 
Q 14.40625 43.609375 13.625 38.8125 
L 8.984375 38.8125 
L 8.984375 49.3125 
Q 13.671875 51.3125 18.09375 52.3125 
Q 22.515625 53.328125 26.703125 53.328125 
Q 37.5 53.328125 43.140625 47.96875 
Q 48.78125 42.625 48.78125 32.421875 
z
" id="DejaVuSerif-97"/>
       <path d="M 10.796875 46.6875 
L 2.875 46.6875 
L 2.875 51.90625 
L 10.796875 51.90625 
L 10.796875 68.015625 
L 19.828125 68.015625 
L 19.828125 51.90625 
L 36.71875 51.90625 
L 36.71875 46.6875 
L 19.828125 46.6875 
L 19.828125 13.71875 
Q 19.828125 7.125 21.09375 5.265625 
Q 22.359375 3.421875 25.78125 3.421875 
Q 29.296875 3.421875 30.90625 5.484375 
Q 32.515625 7.5625 32.625 12.203125 
L 39.40625 12.203125 
Q 39.015625 5.125 35.546875 1.84375 
Q 32.078125 -1.421875 25 -1.421875 
Q 17.234375 -1.421875 14.015625 2.015625 
Q 10.796875 5.46875 10.796875 13.71875 
z
" id="DejaVuSerif-116"/>
       <path d="M 54.203125 25 
L 15.484375 25 
L 15.484375 24.609375 
Q 15.484375 14.109375 19.4375 8.765625 
Q 23.390625 3.421875 31.109375 3.421875 
Q 37.015625 3.421875 40.796875 6.515625 
Q 44.578125 9.625 46.09375 15.71875 
L 53.328125 15.71875 
Q 51.171875 7.171875 45.375 2.875 
Q 39.59375 -1.421875 30.171875 -1.421875 
Q 18.796875 -1.421875 11.890625 6.078125 
Q 4.984375 13.578125 4.984375 25.984375 
Q 4.984375 38.28125 11.765625 45.796875 
Q 18.5625 53.328125 29.59375 53.328125 
Q 41.359375 53.328125 47.65625 46.0625 
Q 53.953125 38.8125 54.203125 25 
z
M 43.609375 30.171875 
Q 43.3125 39.265625 39.765625 43.875 
Q 36.234375 48.484375 29.59375 48.484375 
Q 23.390625 48.484375 19.828125 43.84375 
Q 16.265625 39.203125 15.484375 30.171875 
z
" id="DejaVuSerif-101"/>
       <path d="M 47.796875 52 
L 47.796875 39.015625 
L 42.625 39.015625 
Q 42.390625 42.875 40.484375 44.78125 
Q 38.578125 46.6875 34.90625 46.6875 
Q 28.265625 46.6875 24.71875 42.09375 
Q 21.1875 37.5 21.1875 28.90625 
L 21.1875 5.171875 
L 31.59375 5.171875 
L 31.59375 0 
L 4.109375 0 
L 4.109375 5.171875 
L 12.203125 5.171875 
L 12.203125 46.78125 
L 3.609375 46.78125 
L 3.609375 51.90625 
L 21.1875 51.90625 
L 21.1875 42.671875 
Q 23.828125 48.09375 27.96875 50.703125 
Q 32.125 53.328125 38.09375 53.328125 
Q 40.28125 53.328125 42.703125 52.984375 
Q 45.125 52.640625 47.796875 52 
z
" id="DejaVuSerif-114"/>
       <path id="DejaVuSerif-32"/>
       <path d="M 5.609375 2.875 
L 5.609375 14.984375 
L 10.796875 14.984375 
Q 10.984375 9.1875 14.421875 6.296875 
Q 17.875 3.421875 24.609375 3.421875 
Q 30.671875 3.421875 33.84375 5.6875 
Q 37.015625 7.953125 37.015625 12.3125 
Q 37.015625 15.71875 34.6875 17.8125 
Q 32.375 19.921875 24.90625 22.3125 
L 18.40625 24.515625 
Q 11.71875 26.65625 8.71875 29.875 
Q 5.71875 33.109375 5.71875 38.09375 
Q 5.71875 45.21875 10.9375 49.265625 
Q 16.15625 53.328125 25.390625 53.328125 
Q 29.5 53.328125 34.03125 52.25 
Q 38.578125 51.171875 43.40625 49.125 
L 43.40625 37.796875 
L 38.234375 37.796875 
Q 38.03125 42.828125 34.703125 45.65625 
Q 31.390625 48.484375 25.6875 48.484375 
Q 20.015625 48.484375 17.109375 46.484375 
Q 14.203125 44.484375 14.203125 40.484375 
Q 14.203125 37.203125 16.40625 35.21875 
Q 18.609375 33.25 25.203125 31.203125 
L 32.328125 29 
Q 39.703125 26.703125 42.9375 23.265625 
Q 46.1875 19.828125 46.1875 14.40625 
Q 46.1875 7.03125 40.546875 2.796875 
Q 34.90625 -1.421875 25 -1.421875 
Q 19.96875 -1.421875 15.1875 -0.34375 
Q 10.40625 0.734375 5.609375 2.875 
z
" id="DejaVuSerif-115"/>
       <path d="M 9.71875 68.015625 
Q 9.71875 70.265625 11.34375 71.921875 
Q 12.984375 73.578125 15.28125 73.578125 
Q 17.53125 73.578125 19.15625 71.921875 
Q 20.796875 70.265625 20.796875 68.015625 
Q 20.796875 65.71875 19.1875 64.109375 
Q 17.578125 62.5 15.28125 62.5 
Q 12.984375 62.5 11.34375 64.109375 
Q 9.71875 65.71875 9.71875 68.015625 
z
M 21.1875 5.171875 
L 29.6875 5.171875 
L 29.6875 0 
L 3.609375 0 
L 3.609375 5.171875 
L 12.203125 5.171875 
L 12.203125 46.6875 
L 3.609375 46.6875 
L 3.609375 51.90625 
L 21.1875 51.90625 
z
" id="DejaVuSerif-105"/>
       <path d="M 4 0 
L 4 4.203125 
L 36.53125 46.6875 
L 10.796875 46.6875 
L 10.796875 37.703125 
L 5.609375 37.703125 
L 5.609375 51.90625 
L 48.09375 51.90625 
L 48.09375 47.703125 
L 15.578125 5.171875 
L 43.796875 5.171875 
L 43.796875 14.59375 
L 49.03125 14.59375 
L 49.03125 0 
z
" id="DejaVuSerif-122"/>
       <path d="M 8.59375 75.984375 
L 31.296875 75.984375 
L 31.296875 70.796875 
L 17.921875 70.796875 
L 17.921875 -8.015625 
L 31.296875 -8.015625 
L 31.296875 -13.1875 
L 8.59375 -13.1875 
z
" id="DejaVuSerif-91"/>
       <path d="M 4.4375 -20.796875 
L 17.578125 46.6875 
L 9.46875 46.6875 
L 10.5 51.90625 
L 27.59375 51.90625 
L 21.6875 21.6875 
Q 19.875 12.203125 21.53125 8.6875 
Q 23.1875 5.171875 29.109375 5.171875 
Q 35.359375 5.171875 39.5 9.765625 
Q 43.65625 14.359375 45.359375 23.09375 
L 49.953125 46.6875 
L 42.140625 46.6875 
L 43.171875 51.90625 
L 59.96875 51.90625 
L 50.828125 5.078125 
L 59.328125 5.078125 
L 58.34375 0 
L 40.875 0 
L 42.671875 9.1875 
Q 39.109375 4 34.984375 1.28125 
Q 30.859375 -1.421875 26.46875 -1.421875 
Q 23.6875 -1.421875 21.5625 -0.53125 
Q 19.4375 0.34375 17.875 2.09375 
L 13.421875 -20.796875 
z
" id="DejaVuSerif-Italic-956"/>
       <path d="M 51.8125 41.796875 
Q 54.390625 47.515625 58.421875 50.421875 
Q 62.453125 53.328125 67.828125 53.328125 
Q 75.984375 53.328125 79.984375 48.265625 
Q 83.984375 43.21875 83.984375 33.015625 
L 83.984375 5.171875 
L 92.09375 5.171875 
L 92.09375 0 
L 67.1875 0 
L 67.1875 5.171875 
L 75 5.171875 
L 75 31.984375 
Q 75 39.9375 72.65625 43.3125 
Q 70.3125 46.6875 64.890625 46.6875 
Q 58.890625 46.6875 55.734375 42.140625 
Q 52.59375 37.59375 52.59375 28.90625 
L 52.59375 5.171875 
L 60.40625 5.171875 
L 60.40625 0 
L 35.796875 0 
L 35.796875 5.171875 
L 43.609375 5.171875 
L 43.609375 32.328125 
Q 43.609375 40.09375 41.265625 43.390625 
Q 38.921875 46.6875 33.5 46.6875 
Q 27.484375 46.6875 24.328125 42.140625 
Q 21.1875 37.59375 21.1875 28.90625 
L 21.1875 5.171875 
L 29 5.171875 
L 29 0 
L 4.109375 0 
L 4.109375 5.171875 
L 12.203125 5.171875 
L 12.203125 46.78125 
L 3.609375 46.78125 
L 3.609375 51.90625 
L 21.1875 51.90625 
L 21.1875 42.671875 
Q 23.6875 47.859375 27.53125 50.59375 
Q 31.390625 53.328125 36.28125 53.328125 
Q 42.328125 53.328125 46.375 50.3125 
Q 50.4375 47.3125 51.8125 41.796875 
z
" id="DejaVuSerif-109"/>
       <path d="M 30.421875 75.984375 
L 30.421875 -13.1875 
L 7.71875 -13.1875 
L 7.71875 -8.015625 
L 21.09375 -8.015625 
L 21.09375 70.796875 
L 7.71875 70.796875 
L 7.71875 75.984375 
z
" id="DejaVuSerif-93"/>
      </defs>
      <use transform="translate(0 0.015625)" xlink:href="#DejaVuSerif-83"/>
      <use transform="translate(68.505859 0.015625)" xlink:href="#DejaVuSerif-99"/>
      <use transform="translate(124.511719 0.015625)" xlink:href="#DejaVuSerif-97"/>
      <use transform="translate(184.130859 0.015625)" xlink:href="#DejaVuSerif-116"/>
      <use transform="translate(224.316406 0.015625)" xlink:href="#DejaVuSerif-116"/>
      <use transform="translate(264.501953 0.015625)" xlink:href="#DejaVuSerif-101"/>
      <use transform="translate(323.681641 0.015625)" xlink:href="#DejaVuSerif-114"/>
      <use transform="translate(371.484375 0.015625)" xlink:href="#DejaVuSerif-101"/>
      <use transform="translate(430.664062 0.015625)" xlink:href="#DejaVuSerif-114"/>
      <use transform="translate(478.466797 0.015625)" xlink:href="#DejaVuSerif-32"/>
      <use transform="translate(510.253906 0.015625)" xlink:href="#DejaVuSerif-115"/>
      <use transform="translate(561.572266 0.015625)" xlink:href="#DejaVuSerif-105"/>
      <use transform="translate(593.554688 0.015625)" xlink:href="#DejaVuSerif-122"/>
      <use transform="translate(646.240234 0.015625)" xlink:href="#DejaVuSerif-101"/>
      <use transform="translate(705.419922 0.015625)" xlink:href="#DejaVuSerif-32"/>
      <use transform="translate(737.207031 0.015625)" xlink:href="#DejaVuSerif-91"/>
      <use transform="translate(776.220703 0.015625)" xlink:href="#DejaVuSerif-Italic-956"/>
      <use transform="translate(841.210938 0.015625)" xlink:href="#DejaVuSerif-109"/>
      <use transform="translate(936.035156 0.015625)" xlink:href="#DejaVuSerif-93"/>
     </g>
    </g>
   </g>
   <g id="matplotlib.axis_4">
    <g id="ytick_6">
     <g id="line2d_45">
      <path clip-path="url(#p82cb17e6c2)" d="M 90 442.394226 
L 648 442.394226 
" style="fill:none;stroke:#b0b0b0;stroke-linecap:square;stroke-width:0.8;"/>
     </g>
     <g id="line2d_46">
      <g>
       <use style="stroke:#000000;stroke-width:0.8;" x="90" xlink:href="#m8164b16615" y="442.394226"/>
      </g>
     </g>
     <g id="text_17">
      <!-- 0.900 -->
      <g transform="translate(54.371875 446.193444)scale(0.1 -0.1)">
       <defs>
        <path d="M 9.421875 5.078125 
Q 9.421875 7.8125 11.28125 9.71875 
Q 13.140625 11.625 15.921875 11.625 
Q 18.609375 11.625 20.5 9.71875 
Q 22.40625 7.8125 22.40625 5.078125 
Q 22.40625 2.390625 20.5 0.484375 
Q 18.609375 -1.421875 15.921875 -1.421875 
Q 13.140625 -1.421875 11.28125 0.453125 
Q 9.421875 2.34375 9.421875 5.078125 
z
" id="DejaVuSerif-46"/>
        <path d="M 46.78125 32.671875 
Q 43.5 29 39.25 27.1875 
Q 35.015625 25.390625 29.6875 25.390625 
Q 18.84375 25.390625 12.5625 31.9375 
Q 6.296875 38.484375 6.296875 49.8125 
Q 6.296875 60.890625 13.109375 67.546875 
Q 19.921875 74.21875 31.296875 74.21875 
Q 43.65625 74.21875 50.265625 65.015625 
Q 56.890625 55.8125 56.890625 38.71875 
Q 56.890625 19.578125 49.015625 9.078125 
Q 41.15625 -1.421875 26.90625 -1.421875 
Q 23.046875 -1.421875 18.796875 -0.6875 
Q 14.546875 0.046875 10.109375 1.515625 
L 10.109375 13.625 
L 15.578125 13.625 
Q 16.21875 8.6875 19.390625 6.046875 
Q 22.5625 3.421875 27.875 3.421875 
Q 37.359375 3.421875 41.984375 10.5625 
Q 46.625 17.71875 46.78125 32.671875 
z
M 30.90625 69.390625 
Q 23.96875 69.390625 20.28125 64.328125 
Q 16.609375 59.28125 16.609375 49.8125 
Q 16.609375 40.328125 20.28125 35.25 
Q 23.96875 30.171875 30.90625 30.171875 
Q 37.84375 30.171875 41.53125 35.078125 
Q 45.21875 39.984375 45.21875 49.21875 
Q 45.21875 58.9375 41.5 64.15625 
Q 37.796875 69.390625 30.90625 69.390625 
z
" id="DejaVuSerif-57"/>
       </defs>
       <use xlink:href="#DejaVuSerif-48"/>
       <use x="63.623047" xlink:href="#DejaVuSerif-46"/>
       <use x="95.410156" xlink:href="#DejaVuSerif-57"/>
       <use x="159.033203" xlink:href="#DejaVuSerif-48"/>
       <use x="222.65625" xlink:href="#DejaVuSerif-48"/>
      </g>
     </g>
    </g>
    <g id="ytick_7">
     <g id="line2d_47">
      <path clip-path="url(#p82cb17e6c2)" d="M 90 414.869225 
L 648 414.869225 
" style="fill:none;stroke:#b0b0b0;stroke-linecap:square;stroke-width:0.8;"/>
     </g>
     <g id="line2d_48">
      <g>
       <use style="stroke:#000000;stroke-width:0.8;" x="90" xlink:href="#m8164b16615" y="414.869225"/>
      </g>
     </g>
     <g id="text_18">
      <!-- 0.925 -->
      <g transform="translate(54.371875 418.668444)scale(0.1 -0.1)">
       <use xlink:href="#DejaVuSerif-48"/>
       <use x="63.623047" xlink:href="#DejaVuSerif-46"/>
       <use x="95.410156" xlink:href="#DejaVuSerif-57"/>
       <use x="159.033203" xlink:href="#DejaVuSerif-50"/>
       <use x="222.65625" xlink:href="#DejaVuSerif-53"/>
      </g>
     </g>
    </g>
    <g id="ytick_8">
     <g id="line2d_49">
      <path clip-path="url(#p82cb17e6c2)" d="M 90 387.344225 
L 648 387.344225 
" style="fill:none;stroke:#b0b0b0;stroke-linecap:square;stroke-width:0.8;"/>
     </g>
     <g id="line2d_50">
      <g>
       <use style="stroke:#000000;stroke-width:0.8;" x="90" xlink:href="#m8164b16615" y="387.344225"/>
      </g>
     </g>
     <g id="text_19">
      <!-- 0.950 -->
      <g transform="translate(54.371875 391.143444)scale(0.1 -0.1)">
       <use xlink:href="#DejaVuSerif-48"/>
       <use x="63.623047" xlink:href="#DejaVuSerif-46"/>
       <use x="95.410156" xlink:href="#DejaVuSerif-57"/>
       <use x="159.033203" xlink:href="#DejaVuSerif-53"/>
       <use x="222.65625" xlink:href="#DejaVuSerif-48"/>
      </g>
     </g>
    </g>
    <g id="ytick_9">
     <g id="line2d_51">
      <path clip-path="url(#p82cb17e6c2)" d="M 90 359.819224 
L 648 359.819224 
" style="fill:none;stroke:#b0b0b0;stroke-linecap:square;stroke-width:0.8;"/>
     </g>
     <g id="line2d_52">
      <g>
       <use style="stroke:#000000;stroke-width:0.8;" x="90" xlink:href="#m8164b16615" y="359.819224"/>
      </g>
     </g>
     <g id="text_20">
      <!-- 0.975 -->
      <g transform="translate(54.371875 363.618443)scale(0.1 -0.1)">
       <defs>
        <path d="M 56.390625 67.921875 
L 27.875 0 
L 20.609375 0 
L 47.796875 64.890625 
L 14.109375 64.890625 
L 14.109375 55.90625 
L 8.40625 55.90625 
L 8.40625 72.90625 
L 56.390625 72.90625 
z
" id="DejaVuSerif-55"/>
       </defs>
       <use xlink:href="#DejaVuSerif-48"/>
       <use x="63.623047" xlink:href="#DejaVuSerif-46"/>
       <use x="95.410156" xlink:href="#DejaVuSerif-57"/>
       <use x="159.033203" xlink:href="#DejaVuSerif-55"/>
       <use x="222.65625" xlink:href="#DejaVuSerif-53"/>
      </g>
     </g>
    </g>
    <g id="ytick_10">
     <g id="line2d_53">
      <path clip-path="url(#p82cb17e6c2)" d="M 90 332.294224 
L 648 332.294224 
" style="fill:none;stroke:#b0b0b0;stroke-linecap:square;stroke-width:0.8;"/>
     </g>
     <g id="line2d_54">
      <g>
       <use style="stroke:#000000;stroke-width:0.8;" x="90" xlink:href="#m8164b16615" y="332.294224"/>
      </g>
     </g>
     <g id="text_21">
      <!-- 1.000 -->
      <g transform="translate(54.371875 336.093443)scale(0.1 -0.1)">
       <use xlink:href="#DejaVuSerif-49"/>
       <use x="63.623047" xlink:href="#DejaVuSerif-46"/>
       <use x="95.410156" xlink:href="#DejaVuSerif-48"/>
       <use x="159.033203" xlink:href="#DejaVuSerif-48"/>
       <use x="222.65625" xlink:href="#DejaVuSerif-48"/>
      </g>
     </g>
    </g>
    <g id="ytick_11">
     <g id="line2d_55">
      <path clip-path="url(#p82cb17e6c2)" d="M 90 304.769224 
L 648 304.769224 
" style="fill:none;stroke:#b0b0b0;stroke-linecap:square;stroke-width:0.8;"/>
     </g>
     <g id="line2d_56">
      <g>
       <use style="stroke:#000000;stroke-width:0.8;" x="90" xlink:href="#m8164b16615" y="304.769224"/>
      </g>
     </g>
     <g id="text_22">
      <!-- 1.025 -->
      <g transform="translate(54.371875 308.568442)scale(0.1 -0.1)">
       <use xlink:href="#DejaVuSerif-49"/>
       <use x="63.623047" xlink:href="#DejaVuSerif-46"/>
       <use x="95.410156" xlink:href="#DejaVuSerif-48"/>
       <use x="159.033203" xlink:href="#DejaVuSerif-50"/>
       <use x="222.65625" xlink:href="#DejaVuSerif-53"/>
      </g>
     </g>
    </g>
    <g id="ytick_12">
     <g id="line2d_57">
      <path clip-path="url(#p82cb17e6c2)" d="M 90 277.244223 
L 648 277.244223 
" style="fill:none;stroke:#b0b0b0;stroke-linecap:square;stroke-width:0.8;"/>
     </g>
     <g id="line2d_58">
      <g>
       <use style="stroke:#000000;stroke-width:0.8;" x="90" xlink:href="#m8164b16615" y="277.244223"/>
      </g>
     </g>
     <g id="text_23">
      <!-- 1.050 -->
      <g transform="translate(54.371875 281.043442)scale(0.1 -0.1)">
       <use xlink:href="#DejaVuSerif-49"/>
       <use x="63.623047" xlink:href="#DejaVuSerif-46"/>
       <use x="95.410156" xlink:href="#DejaVuSerif-48"/>
       <use x="159.033203" xlink:href="#DejaVuSerif-53"/>
       <use x="222.65625" xlink:href="#DejaVuSerif-48"/>
      </g>
     </g>
    </g>
    <g id="text_24">
     <!-- $\bf{\Gamma_{11+}}$ -->
     <g transform="translate(37.292188 373.41)rotate(-90)scale(0.1 -0.1)">
      <defs>
       <path d="M 32.90625 5.90625 
L 44.390625 5.90625 
L 44.390625 0 
L 4.6875 0 
L 4.6875 5.90625 
L 14.015625 5.90625 
L 14.015625 67 
L 4.6875 67 
L 4.6875 72.90625 
L 69.671875 72.90625 
L 69.671875 55.71875 
L 62.984375 55.71875 
L 62.984375 66.21875 
L 32.90625 66.21875 
z
" id="DejaVuSerif-Bold-915"/>
       <path d="M 13.71875 0 
L 13.71875 5.90625 
L 27.390625 5.90625 
L 27.390625 64.890625 
L 12.203125 55.90625 
L 12.203125 63.1875 
L 30.515625 74.21875 
L 45.90625 74.21875 
L 45.90625 5.90625 
L 59.625 5.90625 
L 59.625 0 
z
" id="DejaVuSerif-Bold-49"/>
       <path d="M 47.515625 62.703125 
L 47.515625 37.015625 
L 73.1875 37.015625 
L 73.1875 25.78125 
L 47.515625 25.78125 
L 47.515625 0.09375 
L 36.28125 0.09375 
L 36.28125 25.78125 
L 10.59375 25.78125 
L 10.59375 37.015625 
L 36.28125 37.015625 
L 36.28125 62.703125 
z
" id="DejaVuSerif-Bold-43"/>
      </defs>
      <use transform="translate(0 0.09375)" xlink:href="#DejaVuSerif-Bold-915"/>
      <use transform="translate(71.904453 -15.478125)scale(0.7)" xlink:href="#DejaVuSerif-Bold-49"/>
      <use transform="translate(120.610508 -15.478125)scale(0.7)" xlink:href="#DejaVuSerif-Bold-49"/>
      <use transform="translate(184.130039 -15.478125)scale(0.7)" xlink:href="#DejaVuSerif-Bold-43"/>
     </g>
    </g>
   </g>
   <g id="line2d_59">
    <path clip-path="url(#p82cb17e6c2)" d="M 115.363636 330.935684 
L 143.333561 330.902982 
L 145.876282 330.533755 
L 148.419002 329.783288 
L 149.690362 330.039789 
L 150.961722 330.803499 
L 152.233083 331.35239 
L 153.504443 331.631466 
L 156.047163 331.81557 
L 163.675325 331.882661 
L 164.946685 332.067378 
L 166.218045 332.407841 
L 167.489405 332.951845 
L 170.032126 334.335813 
L 171.303486 334.745149 
L 172.574846 334.87423 
L 178.931647 334.791278 
L 181.474368 335.069477 
L 184.017088 335.628676 
L 187.831169 336.614557 
L 189.102529 336.707302 
L 190.373889 336.52992 
L 195.45933 334.907091 
L 198.002051 334.573967 
L 200.544771 334.597338 
L 204.358852 334.967365 
L 206.901572 335.141347 
L 208.172932 334.864535 
L 209.444293 334.097026 
L 213.258373 330.696968 
L 214.529733 330.003642 
L 215.801094 329.578178 
L 217.072454 329.360631 
L 218.343814 329.298722 
L 219.615174 329.360719 
L 220.886535 329.542421 
L 223.429255 330.172276 
L 224.700615 330.20251 
L 225.971975 329.551169 
L 227.243336 328.253794 
L 229.786056 325.169393 
L 231.057416 323.874266 
L 232.328776 322.874916 
L 233.600137 322.179842 
L 234.871497 321.767575 
L 236.142857 321.62381 
L 237.414217 321.767914 
L 239.956938 322.494 
L 241.228298 322.285609 
L 242.499658 321.600067 
L 245.042379 319.573344 
L 247.585099 317.445929 
L 248.856459 316.554123 
L 250.12782 315.808801 
L 251.39918 315.212691 
L 252.67054 314.784671 
L 253.9419 314.483737 
L 255.21326 313.978033 
L 259.027341 311.590511 
L 260.298701 310.930337 
L 261.570062 310.464819 
L 262.841422 310.233287 
L 265.384142 310.199804 
L 267.926863 310.231302 
L 269.198223 309.626716 
L 270.469583 307.93504 
L 273.012303 304.068577 
L 274.283664 302.503187 
L 275.555024 301.374888 
L 276.826384 300.99701 
L 278.097744 301.354735 
L 279.369105 302.130169 
L 281.911825 304.055689 
L 283.183185 304.773892 
L 284.454545 304.02827 
L 285.725906 302.300924 
L 288.268626 297.676046 
L 289.539986 295.320613 
L 290.811347 293.577454 
L 292.082707 293.193888 
L 293.354067 294.03606 
L 294.625427 295.562516 
L 297.168148 299.027631 
L 298.439508 299.3921 
L 299.710868 298.236608 
L 300.982228 296.5752 
L 302.253589 294.177668 
L 304.796309 287.981348 
L 306.067669 286.430042 
L 307.339029 286.630303 
L 308.61039 288.054523 
L 309.88175 290.54828 
L 311.15311 293.76267 
L 312.42447 295.968642 
L 313.69583 295.683408 
L 314.967191 294.704896 
L 316.238551 293.091752 
L 317.509911 290.415395 
L 318.781271 285.901345 
L 320.052632 281.887605 
L 321.323992 281.150622 
L 322.595352 281.793361 
L 323.866712 283.254451 
L 325.138072 285.928022 
L 326.409433 290.01331 
L 327.680793 292.215413 
L 328.952153 292.905561 
L 330.223513 292.360396 
L 331.494874 290.75891 
L 332.766234 287.47785 
L 334.037594 282.568157 
L 335.308954 280.178182 
L 336.580314 280.433373 
L 337.851675 281.565962 
L 339.123035 283.216618 
L 340.394395 286.064292 
L 341.665755 287.850713 
L 342.937116 291.108919 
L 344.208476 293.242182 
L 345.479836 292.540471 
L 346.751196 289.744335 
L 348.022556 283.405246 
L 349.293917 281.038815 
L 350.565277 280.861964 
L 351.836637 281.662888 
L 353.107997 283.675007 
L 354.379357 286.615996 
L 355.650718 287.735681 
L 356.922078 289.711723 
L 358.193438 293.490387 
L 359.464798 299.131509 
L 360.736159 299.236193 
L 362.007519 292.580659 
L 363.278879 287.047878 
L 364.550239 286.803438 
L 365.821599 286.799513 
L 367.09296 286.95562 
L 368.36432 289.244042 
L 369.63568 289.70839 
L 370.90704 291.417729 
L 372.178401 294.029717 
L 373.449761 296.958892 
L 374.721121 302.447728 
L 375.992481 305.667133 
L 377.263841 301.113129 
L 378.535202 302.388153 
L 379.806562 301.207689 
L 381.077922 302.309928 
L 382.349282 303.841056 
L 383.620643 301.686485 
L 384.892003 302.569609 
L 386.163363 305.504452 
L 387.434723 304.315958 
L 388.706083 306.624115 
L 389.977444 308.278805 
L 391.248804 311.921248 
L 392.520164 317.025394 
L 393.791524 318.937598 
L 395.062884 321.677354 
L 396.334245 320.28301 
L 397.605605 324.490146 
L 398.876965 321.589087 
L 400.148325 328.836369 
L 401.419686 326.619678 
L 402.691046 327.888705 
L 403.962406 329.357812 
L 405.233766 324.35338 
L 406.505126 328.196995 
L 407.776487 347.789536 
L 409.047847 336.594959 
L 410.319207 345.660356 
L 411.590567 336.461962 
L 412.861928 346.999044 
L 414.133288 343.56967 
L 415.404648 354.5118 
L 416.676008 351.084383 
L 417.947368 356.347622 
L 419.218729 354.285047 
L 420.490089 348.518928 
L 423.032809 382.353156 
L 424.30417 373.084922 
L 425.57553 386.399445 
L 426.84689 358.193442 
L 428.11825 390.86295 
L 429.38961 365.199115 
L 430.660971 395.924263 
L 431.932331 368.141606 
L 433.203691 389.563689 
L 434.475051 360.684263 
L 435.746411 397.418557 
L 437.017772 379.430846 
L 438.289132 399.762148 
L 439.560492 405.946628 
L 440.831852 387.406182 
L 442.103213 408.292067 
L 443.374573 411.908113 
L 444.645933 401.159015 
L 445.917293 421.49272 
L 447.188653 405.790675 
L 448.460014 385.2066 
L 449.731374 409.654233 
L 451.002734 397.121003 
L 452.274094 380.595692 
L 453.545455 409.704314 
L 454.816815 382.426867 
L 456.088175 408.441485 
L 457.359535 427.795812 
L 458.630895 406.431027 
L 459.902256 423.198184 
L 461.173616 428.604144 
L 462.444976 435.01119 
L 463.716336 428.402056 
L 464.987697 412.178735 
L 466.259057 369.943181 
L 467.530417 402.87698 
L 468.801777 392.794702 
L 470.073137 414.61264 
L 471.344498 364.39165 
L 472.615858 399.001099 
L 473.887218 425.16479 
L 475.158578 414.685809 
L 476.429938 388.010072 
L 477.701299 440.541818 
L 478.972659 420.499671 
L 480.244019 385.724493 
L 481.515379 407.357813 
L 482.78674 401.647566 
L 484.0581 381.590213 
L 485.32946 387.051524 
L 486.60082 382.365914 
L 487.87218 384.333715 
L 489.143541 409.422133 
L 490.414901 403.705555 
L 491.686261 416.36876 
L 492.957621 411.796083 
L 494.228982 380.618979 
L 495.500342 382.097889 
L 496.771702 393.891007 
L 498.043062 373.091514 
L 499.314422 379.35903 
L 500.585783 379.303433 
L 501.857143 356.617545 
L 503.128503 376.816996 
L 504.399863 365.686184 
L 505.671224 379.606239 
L 506.942584 396.672337 
L 508.213944 389.614336 
L 509.485304 366.913759 
L 510.756664 386.006404 
L 512.028025 383.137665 
L 513.299385 374.788637 
L 514.570745 371.634855 
L 515.842105 368.933994 
L 517.113465 354.764987 
L 518.384826 369.259851 
L 519.656186 358.961574 
L 520.927546 371.967466 
L 522.198906 350.541049 
L 523.470267 369.197604 
L 524.741627 373.617421 
L 526.012987 374.452141 
L 527.284347 347.899492 
L 528.555707 363.121586 
L 529.827068 350.240426 
L 531.098428 370.83121 
L 532.369788 370.842704 
L 533.641148 364.233137 
L 534.912509 364.752525 
L 536.183869 359.218424 
L 537.455229 333.154429 
L 538.726589 363.113541 
L 539.997949 363.095269 
L 541.26931 357.785642 
L 542.54067 342.353388 
L 543.81203 354.74 
L 545.08339 359.748291 
L 546.354751 363.059713 
L 547.626111 361.552586 
L 550.168831 361.029292 
L 551.440191 344.539075 
L 552.711552 343.205704 
L 553.982912 369.219868 
L 555.254272 372.080336 
L 557.796992 355.126001 
L 559.068353 358.491057 
L 560.339713 361.454708 
L 561.611073 362.781835 
L 562.882433 363.651941 
L 564.153794 364.061171 
L 565.425154 358.916714 
L 567.967874 354.720284 
L 569.239234 325.730385 
L 570.510595 365.557107 
L 571.781955 355.678222 
L 573.053315 358.999894 
L 574.324675 364.387347 
L 575.596036 368.498529 
L 576.867396 370.103478 
L 578.138756 366.441516 
L 579.410116 358.723256 
L 580.681476 354.480552 
L 581.952837 351.074717 
L 583.224197 348.269526 
L 584.495557 340.742309 
L 585.766917 304.159146 
L 587.038278 364.792549 
L 588.309638 376.09241 
L 589.580998 381.983417 
L 590.852358 390.02537 
L 592.123718 404.872788 
L 593.395079 405.33084 
L 594.666439 398.256711 
L 597.209159 381.615173 
L 598.480519 373.072608 
L 601.02324 333.991653 
L 602.2946 342.655848 
L 603.56596 339.58839 
L 604.837321 335.367284 
L 606.108681 342.823175 
L 607.380041 368.065582 
L 608.651401 383.857412 
L 609.922761 416.742726 
L 611.194122 419.921971 
L 612.465482 415.293057 
L 613.736842 409.150232 
L 615.008202 341.24552 
L 616.279563 313.905169 
L 617.550923 320.834152 
L 618.822283 334.795535 
L 620.093643 347.516809 
L 621.365003 368.962941 
L 622.636364 367.193861 
L 622.636364 367.193861 
" style="fill:none;stroke:#1f77b4;stroke-linecap:square;stroke-width:1.5;"/>
   </g>
   <g id="patch_9">
    <path d="M 90 448.56 
L 90 272.16 
" style="fill:none;stroke:#000000;stroke-linecap:square;stroke-linejoin:miter;stroke-width:0.8;"/>
   </g>
   <g id="patch_10">
    <path d="M 648 448.56 
L 648 272.16 
" style="fill:none;stroke:#000000;stroke-linecap:square;stroke-linejoin:miter;stroke-width:0.8;"/>
   </g>
   <g id="patch_11">
    <path d="M 90 448.56 
L 648 448.56 
" style="fill:none;stroke:#000000;stroke-linecap:square;stroke-linejoin:miter;stroke-width:0.8;"/>
   </g>
   <g id="patch_12">
    <path d="M 90 272.16 
L 648 272.16 
" style="fill:none;stroke:#000000;stroke-linecap:square;stroke-linejoin:miter;stroke-width:0.8;"/>
   </g>
   <g id="legend_2">
    <g id="patch_13">
     <path d="M 498.784375 294.838125 
L 641 294.838125 
Q 643 294.838125 643 292.838125 
L 643 279.16 
Q 643 277.16 641 277.16 
L 498.784375 277.16 
Q 496.784375 277.16 496.784375 279.16 
L 496.784375 292.838125 
Q 496.784375 294.838125 498.784375 294.838125 
z
" style="fill:#ffffff;opacity:0.8;stroke:#cccccc;stroke-linejoin:miter;"/>
    </g>
    <g id="line2d_60">
     <path d="M 500.784375 285.258438 
L 520.784375 285.258438 
" style="fill:none;stroke:#1f77b4;stroke-linecap:square;stroke-width:1.5;"/>
    </g>
    <g id="line2d_61"/>
    <g id="text_25">
     <!-- This is \textbf{line 1} -->
     <g transform="translate(528.784375 288.758438)scale(0.1 -0.1)">
      <defs>
       <path d="M 19.09375 0 
L 19.09375 5.171875 
L 28.421875 5.171875 
L 28.421875 67.09375 
L 6.984375 67.09375 
L 6.984375 55.71875 
L 0.984375 55.71875 
L 0.984375 72.90625 
L 65.71875 72.90625 
L 65.71875 55.71875 
L 59.71875 55.71875 
L 59.71875 67.09375 
L 38.28125 67.09375 
L 38.28125 5.171875 
L 47.609375 5.171875 
L 47.609375 0 
z
" id="DejaVuSerif-84"/>
       <path d="M 4.109375 0 
L 4.109375 5.171875 
L 12.203125 5.171875 
L 12.203125 70.796875 
L 3.609375 70.796875 
L 3.609375 75.984375 
L 21.1875 75.984375 
L 21.1875 42.671875 
Q 23.6875 47.953125 27.65625 50.640625 
Q 31.640625 53.328125 36.921875 53.328125 
Q 45.515625 53.328125 49.5625 48.390625 
Q 53.609375 43.453125 53.609375 33.015625 
L 53.609375 5.171875 
L 61.625 5.171875 
L 61.625 0 
L 36.8125 0 
L 36.8125 5.171875 
L 44.578125 5.171875 
L 44.578125 30.171875 
Q 44.578125 39.703125 42.25 43.1875 
Q 39.9375 46.6875 33.984375 46.6875 
Q 27.734375 46.6875 24.453125 42.140625 
Q 21.1875 37.59375 21.1875 28.90625 
L 21.1875 5.171875 
L 29 5.171875 
L 29 0 
z
" id="DejaVuSerif-104"/>
       <path d="M 7.8125 72.90625 
L 33.6875 -9.28125 
L 25.875 -9.28125 
L 0 72.90625 
z
" id="DejaVuSerif-92"/>
       <path d="M 29.109375 31.6875 
L 39.984375 46.6875 
L 33.015625 46.6875 
L 33.015625 51.90625 
L 52.984375 51.90625 
L 52.984375 46.6875 
L 46.09375 46.6875 
L 32.171875 27.484375 
L 48.390625 5.171875 
L 55.171875 5.171875 
L 55.171875 0 
L 31.203125 0 
L 31.203125 5.171875 
L 37.796875 5.171875 
L 26.515625 20.703125 
L 15.1875 5.171875 
L 21.921875 5.171875 
L 21.921875 0 
L 2.203125 0 
L 2.203125 5.171875 
L 9.078125 5.171875 
L 23.390625 24.90625 
L 7.625 46.6875 
L 1.21875 46.6875 
L 1.21875 51.90625 
L 24.421875 51.90625 
L 24.421875 46.6875 
L 18.21875 46.6875 
z
" id="DejaVuSerif-120"/>
       <path d="M 11.53125 5.171875 
L 11.53125 70.796875 
L 2.875 70.796875 
L 2.875 75.984375 
L 20.515625 75.984375 
L 20.515625 43.796875 
Q 23.140625 48.6875 27.21875 51 
Q 31.296875 53.328125 37.3125 53.328125 
Q 46.875 53.328125 52.921875 45.75 
Q 58.984375 38.1875 58.984375 25.984375 
Q 58.984375 13.765625 52.921875 6.171875 
Q 46.875 -1.421875 37.3125 -1.421875 
Q 31.296875 -1.421875 27.21875 0.890625 
Q 23.140625 3.21875 20.515625 8.109375 
L 20.515625 0 
L 2.875 0 
L 2.875 5.171875 
z
M 20.515625 23.390625 
Q 20.515625 14.015625 24.09375 9.109375 
Q 27.6875 4.203125 34.515625 4.203125 
Q 41.40625 4.203125 44.9375 9.71875 
Q 48.484375 15.234375 48.484375 25.984375 
Q 48.484375 36.765625 44.9375 42.234375 
Q 41.40625 47.703125 34.515625 47.703125 
Q 27.6875 47.703125 24.09375 42.765625 
Q 20.515625 37.84375 20.515625 28.515625 
z
" id="DejaVuSerif-98"/>
       <path d="M 43.015625 63.71875 
L 38.28125 63.71875 
Q 38.234375 67.390625 36.203125 69.28125 
Q 34.1875 71.1875 30.328125 71.1875 
Q 25.296875 71.1875 23.234375 68.421875 
Q 21.1875 65.671875 21.1875 58.59375 
L 21.1875 51.90625 
L 35.6875 51.90625 
L 35.6875 46.6875 
L 21.1875 46.6875 
L 21.1875 5.171875 
L 32.71875 5.171875 
L 32.71875 0 
L 3.609375 0 
L 3.609375 5.171875 
L 12.203125 5.171875 
L 12.203125 46.6875 
L 3.609375 46.6875 
L 3.609375 51.90625 
L 12.203125 51.90625 
L 12.203125 58.40625 
Q 12.203125 67.09375 16.71875 71.53125 
Q 21.234375 75.984375 29.984375 75.984375 
Q 33.25 75.984375 36.515625 75.390625 
Q 39.796875 74.8125 43.015625 73.578125 
z
" id="DejaVuSerif-102"/>
       <path d="M 51.125 -11.1875 
L 51.125 -16.3125 
L 48.09375 -16.3125 
Q 35.9375 -16.3125 31.8125 -12.6875 
Q 27.6875 -9.078125 27.6875 1.703125 
L 27.6875 14.3125 
Q 27.6875 21.625 25.046875 24.453125 
Q 22.40625 27.296875 15.484375 27.296875 
L 12.5 27.296875 
L 12.5 32.421875 
L 15.484375 32.421875 
Q 22.40625 32.421875 25.046875 35.25 
Q 27.6875 38.09375 27.6875 45.40625 
L 27.6875 58.015625 
Q 27.6875 68.796875 31.8125 72.390625 
Q 35.9375 75.984375 48.09375 75.984375 
L 51.125 75.984375 
L 51.125 70.90625 
L 47.796875 70.90625 
Q 40.921875 70.90625 38.8125 68.75 
Q 36.71875 66.609375 36.71875 59.71875 
L 36.71875 45.703125 
Q 36.71875 37.984375 34.28125 34.65625 
Q 31.84375 31.34375 25.484375 29.890625 
Q 31.9375 28.21875 34.328125 24.953125 
Q 36.71875 21.6875 36.71875 14.015625 
L 36.71875 0 
Q 36.71875 -6.890625 38.8125 -9.03125 
Q 40.921875 -11.1875 47.796875 -11.1875 
z
" id="DejaVuSerif-123"/>
       <path d="M 20.515625 5.171875 
L 29 5.171875 
L 29 0 
L 2.875 0 
L 2.875 5.171875 
L 11.53125 5.171875 
L 11.53125 70.796875 
L 2.875 70.796875 
L 2.875 75.984375 
L 20.515625 75.984375 
z
" id="DejaVuSerif-108"/>
       <path d="M 4.109375 0 
L 4.109375 5.171875 
L 12.203125 5.171875 
L 12.203125 46.6875 
L 3.609375 46.6875 
L 3.609375 51.90625 
L 21.1875 51.90625 
L 21.1875 42.671875 
Q 23.6875 47.953125 27.65625 50.640625 
Q 31.640625 53.328125 36.921875 53.328125 
Q 45.515625 53.328125 49.5625 48.390625 
Q 53.609375 43.453125 53.609375 33.015625 
L 53.609375 5.171875 
L 61.625 5.171875 
L 61.625 0 
L 36.8125 0 
L 36.8125 5.171875 
L 44.578125 5.171875 
L 44.578125 30.171875 
Q 44.578125 39.703125 42.234375 43.234375 
Q 39.890625 46.78125 33.984375 46.78125 
Q 27.734375 46.78125 24.453125 42.203125 
Q 21.1875 37.640625 21.1875 28.90625 
L 21.1875 5.171875 
L 29 5.171875 
L 29 0 
z
" id="DejaVuSerif-110"/>
       <path d="M 12.5 -11.1875 
L 15.921875 -11.1875 
Q 22.75 -11.1875 24.828125 -9.0625 
Q 26.90625 -6.9375 26.90625 0 
L 26.90625 14.015625 
Q 26.90625 21.6875 29.296875 24.953125 
Q 31.6875 28.21875 38.09375 29.890625 
Q 31.734375 31.34375 29.3125 34.65625 
Q 26.90625 37.984375 26.90625 45.703125 
L 26.90625 59.71875 
Q 26.90625 66.65625 24.828125 68.78125 
Q 22.75 70.90625 15.921875 70.90625 
L 12.5 70.90625 
L 12.5 75.984375 
L 15.578125 75.984375 
Q 27.734375 75.984375 31.8125 72.390625 
Q 35.890625 68.796875 35.890625 58.015625 
L 35.890625 45.40625 
Q 35.890625 38.09375 38.515625 35.25 
Q 41.15625 32.421875 48.09375 32.421875 
L 51.125 32.421875 
L 51.125 27.296875 
L 48.09375 27.296875 
Q 41.15625 27.296875 38.515625 24.453125 
Q 35.890625 21.625 35.890625 14.3125 
L 35.890625 1.703125 
Q 35.890625 -9.078125 31.8125 -12.6875 
Q 27.734375 -16.3125 15.578125 -16.3125 
L 12.5 -16.3125 
z
" id="DejaVuSerif-125"/>
      </defs>
      <use xlink:href="#DejaVuSerif-84"/>
      <use x="66.699219" xlink:href="#DejaVuSerif-104"/>
      <use x="131.103516" xlink:href="#DejaVuSerif-105"/>
      <use x="163.085938" xlink:href="#DejaVuSerif-115"/>
      <use x="214.404297" xlink:href="#DejaVuSerif-32"/>
      <use x="246.191406" xlink:href="#DejaVuSerif-105"/>
      <use x="278.173828" xlink:href="#DejaVuSerif-115"/>
      <use x="329.492188" xlink:href="#DejaVuSerif-32"/>
      <use x="361.279297" xlink:href="#DejaVuSerif-92"/>
      <use x="394.970703" xlink:href="#DejaVuSerif-116"/>
      <use x="435.15625" xlink:href="#DejaVuSerif-101"/>
      <use x="494.335938" xlink:href="#DejaVuSerif-120"/>
      <use x="550.732422" xlink:href="#DejaVuSerif-116"/>
      <use x="590.917969" xlink:href="#DejaVuSerif-98"/>
      <use x="654.931641" xlink:href="#DejaVuSerif-102"/>
      <use x="691.943359" xlink:href="#DejaVuSerif-123"/>
      <use x="755.566406" xlink:href="#DejaVuSerif-108"/>
      <use x="787.548828" xlink:href="#DejaVuSerif-105"/>
      <use x="819.53125" xlink:href="#DejaVuSerif-110"/>
      <use x="883.935547" xlink:href="#DejaVuSerif-101"/>
      <use x="943.115234" xlink:href="#DejaVuSerif-32"/>
      <use x="974.902344" xlink:href="#DejaVuSerif-49"/>
      <use x="1038.525391" xlink:href="#DejaVuSerif-125"/>
     </g>
    </g>
   </g>
  </g>
 </g>
 <defs>
  <clipPath id="pf361283da6">
   <rect height="176.4" width="558" x="90" y="60.48"/>
  </clipPath>
  <clipPath id="p82cb17e6c2">
   <rect height="176.4" width="558" x="90" y="272.16"/>
  </clipPath>
 </defs>
</svg>
